<svg width="277.0399963378906px" height="120.8099884033203px" xmlns="http://www.w3.org/2000/svg"
     viewBox="111.4800018310547 14.595005798339848 277.0399963378906 120.8099884033203"
     style="background: rgba(0, 0, 0, 0);" preserveAspectRatio="xMidYMid">
    <defs>
        <filter id="editing-extrude-glow">
            <feFlood flood-color="#333333" result="flood-1"></feFlood>
            <feMorphology operator="erode" radius="1" in="SourceAlpha" result="erode"></feMorphology>
            <feComposite operator="in" in="flood-1" in2="erode" result="comp1"></feComposite>
            <feConvolveMatrix order="3,3" divisor="1" in="comp1" result="convolve"
                              kernelMatrix="0 0 0 1 1 1 0 0 0"></feConvolveMatrix>
            <feOffset dx="-3" dy="0" in="convolve" result="extrude"></feOffset>
            <feComposite operator="in" in="flood-1" in2="extrude" result="comp-extrude"></feComposite>
            <feFlood flood-color="#000000" result="flood-2"></feFlood>
            <feComposite operator="in" in="flood-2" in2="SourceAlpha" result="comp2"></feComposite>
            <feMorphology operator="dilate" radius="1" in="comp2" result="dilate"></feMorphology>
            <feOffset dx="-4.5" dy="0" in="dilate" result="offset"></feOffset>
            <feGaussianBlur in="offset" stdDeviation="5.8" result="blur"></feGaussianBlur>
            <feComponentTransfer in="blur" result="shadow">
                <feFuncA type="linear" slope="0.8" intercept="-0.2"></feFuncA>
            </feComponentTransfer>
            <feMerge>
                <feMergeNode in="shadow"></feMergeNode>
                <feMergeNode in="comp-extrude"></feMergeNode>
                <feMergeNode in="SourceGraphic"></feMergeNode>
            </feMerge>
        </filter>
    </defs>
    <g filter="url(#editing-extrude-glow)">
        <g transform="translate(156.34000119566917, 97.43000030517578)">
            <path d="M24.96-4.80L24.96-4.80L24.96-4.80Q24.96-9.28 26.75-18.24L26.75-18.24L17.28-18.24L13.76 0L0.38 0L8.51-42.24L22.02-42.24L18.30-23.36L27.78-23.36L31.30-42.24L44.80-42.24L44.80-42.24Q43.90-37.50 42.75-32.19L42.75-32.19L40.58-21.76L40.58-21.76Q38.14-9.60 38.14-4.29L38.14-4.29L38.14-4.29Q38.14-2.11 38.85-0.90L38.85-0.90L38.85-0.90Q35.65 1.28 31.90 1.28L31.90 1.28L31.90 1.28Q28.16 1.28 26.56-0.51L26.56-0.51L26.56-0.51Q24.96-2.30 24.96-4.80ZM73.66-9.86L73.66-9.86L73.66-9.86Q74.88-8.32 74.88-5.82L74.88-5.82L74.88-5.82Q74.88-2.37 72.32-0.54L72.32-0.54L72.32-0.54Q69.76 1.28 65.73 1.28L65.73 1.28L65.73 1.28Q63.42 1.28 59.90 0.77L59.90 0.77L59.90 0.77Q52.99-0.32 50.88-0.32L50.88-0.32L50.88-0.32Q48.77-0.32 47.94-0.22L47.94-0.22L47.94-0.22Q47.10-0.13 45.76 0L45.76 0L53.63-42.24L81.22-42.24L81.22-42.24Q81.22-38.34 79.33-36.29L79.33-36.29L79.33-36.29Q77.44-34.24 73.73-34.24L73.73-34.24L73.73-34.24Q70.02-34.24 66.24-35.97L66.24-35.97L64.26-24.77L75.65-24.77L75.65-24.77Q75.65-21.38 73.98-19.49L73.98-19.49L73.98-19.49Q72.32-17.60 69.54-17.60L69.54-17.60L69.54-17.60Q66.75-17.60 65.02-18.24L65.02-18.24L65.02-18.24Q63.30-18.88 63.10-19.07L63.10-19.07L60.80-6.98L60.80-6.98Q62.34-6.78 65.22-6.78L65.22-6.78L65.22-6.78Q70.14-6.78 73.66-9.86ZM107.52-9.86L107.52-9.86L107.52-9.86Q108.74-8.32 108.74-5.34L108.74-5.34L108.74-5.34Q108.74-2.37 106.46-0.54L106.46-0.54L106.46-0.54Q104.19 1.28 100.22 1.28L100.22 1.28L100.22 1.28Q97.92 1.28 94.34 0.77L94.34 0.77L94.34 0.77Q87.30-0.32 85.28-0.32L85.28-0.32L85.28-0.32Q83.26-0.32 82.43-0.22L82.43-0.22L82.43-0.22Q81.60-0.13 80.26 0L80.26 0L88-42.24L102.02-42.24L95.62-7.04L95.62-7.04Q96.45-6.91 97.22-6.91L97.22-6.91L98.82-6.91L98.82-6.91Q104.19-6.91 107.52-9.86ZM139.78-9.86L139.78-9.86L139.78-9.86Q140.99-8.32 140.99-5.34L140.99-5.34L140.99-5.34Q140.99-2.37 138.72-0.54L138.72-0.54L138.72-0.54Q136.45 1.28 132.48 1.28L132.48 1.28L132.48 1.28Q130.18 1.28 126.59 0.77L126.59 0.77L126.59 0.77Q119.55-0.32 117.54-0.32L117.54-0.32L117.54-0.32Q115.52-0.32 114.69-0.22L114.69-0.22L114.69-0.22Q113.86-0.13 112.51 0L112.51 0L120.26-42.24L134.27-42.24L127.87-7.04L127.87-7.04Q128.70-6.91 129.47-6.91L129.47-6.91L131.07-6.91L131.07-6.91Q136.45-6.91 139.78-9.86ZM145.60-15.62L145.60-15.62L145.60-15.62Q145.60-27.71 151.87-35.33L151.87-35.33L151.87-35.33Q158.53-43.58 170.11-43.58L170.11-43.58L170.11-43.58Q178.50-43.58 182.72-39.52L182.72-39.52L182.72-39.52Q186.94-35.46 186.94-26.88L186.94-26.88L186.94-26.88Q186.94-13.82 180.29-6.21L180.29-6.21L180.29-6.21Q173.70 1.28 162.62 1.28L162.62 1.28L162.62 1.28Q153.98 1.28 149.79-3.04L149.79-3.04L149.79-3.04Q145.60-7.36 145.60-15.62ZM162.43-28.86L162.43-28.86L162.43-28.86Q159.55-17.34 159.55-8.26L159.55-8.26L159.55-8.26Q159.55-6.08 160.29-4.67L160.29-4.67L160.29-4.67Q161.02-3.26 162.98-3.26L162.98-3.26L162.98-3.26Q164.93-3.26 166.14-4.19L166.14-4.19L166.14-4.19Q167.36-5.12 168.32-7.23L168.32-7.23L168.32-7.23Q169.86-10.69 171.30-18.02L171.30-18.02L171.30-18.02Q172.74-25.34 172.86-28.38L172.86-28.38L172.86-28.38Q172.99-31.42 172.99-33.73L172.99-33.73L172.99-33.73Q172.99-36.03 172.29-37.50L172.29-37.50L172.29-37.50Q171.58-38.98 169.70-38.98L169.70-38.98L169.70-38.98Q167.81-38.98 166.53-37.82L166.53-37.82L166.53-37.82Q164.16-35.65 162.43-28.86Z"
                  fill="#eb6c6c"></path>
        </g>
    </g>
    <style>text {
        font-size: 64px;
        font-family: Arial Black;
        dominant-baseline: central;
        text-anchor: middle;
        }
    </style>
</svg>
