<svg width="309.1" height="108.029" viewBox="0 0 309.1 108.029" xmlns="http://www.w3.org/2000/svg">
    <g id="svgGroup" stroke-linecap="round" fill-rule="evenodd" font-size="9pt" stroke="#000" stroke-width="0.25mm"
       fill="none" style="stroke:#000;stroke-width:0.25mm;fill:none">
        <path d="M 60.1 43.229 Q 56.5 50.229 52.7 56.379 Q 48.9 62.529 44 67.629 A 9.573 9.573 0 0 1 43.434 68.187 Q 40.843 70.52 40.3 66.629 A 25.981 25.981 0 0 1 40.256 65.103 Q 40.256 62.912 40.615 60.602 A 33.332 33.332 0 0 1 40.8 59.529 Q 41.5 55.829 42.9 52.529 Q 44.2 49.329 46.1 46.329 Q 48 43.329 50.5 40.829 Q 53 38.329 56.05 36.629 Q 59.1 34.929 62.6 34.329 Q 63.8 30.129 64.9 26.079 A 93.583 93.583 0 0 0 66.611 18.617 A 85.96 85.96 0 0 0 66.7 18.129 A 47.587 47.587 0 0 0 67.397 12.187 A 42.214 42.214 0 0 0 67.45 10.579 A 35.418 35.418 0 0 0 67.453 10.093 Q 67.453 7.343 67.022 4.794 A 28.661 28.661 0 0 0 66.8 3.629 A 6.871 6.871 0 0 1 66.755 3.488 Q 66.632 3.092 66.68 3.037 A 0.025 0.025 0 0 1 66.7 3.029 Q 66.885 2.936 67.027 3.186 A 0.898 0.898 0 0 1 67.05 3.229 Q 67.173 3.475 67.195 3.587 A 0.221 0.221 0 0 1 67.2 3.629 A 22.221 22.221 0 0 1 69.551 13.704 A 24.663 24.663 0 0 1 69.55 13.929 Q 69.5 19.429 68.2 25.329 A 133.681 133.681 0 0 1 65.191 36.567 A 146.12 146.12 0 0 1 64.95 37.329 Q 63 43.429 61.6 49.529 A 41.712 41.712 0 0 0 60.694 55.419 A 49.147 49.147 0 0 0 60.55 57.879 A 34.381 34.381 0 0 0 60.53 59.037 A 33.406 33.406 0 0 0 61.4 66.629 Q 62.4 71.129 65.1 74.279 A 11.368 11.368 0 0 0 67.238 76.24 A 8.262 8.262 0 0 0 71.3 77.729 A 5.041 5.041 0 0 1 71.551 77.766 Q 72.078 77.859 72.099 78.015 A 0.098 0.098 0 0 1 72.1 78.029 A 0.234 0.234 0 0 1 72.069 78.15 Q 72.018 78.237 71.879 78.272 A 0.614 0.614 0 0 1 71.85 78.279 A 2.842 2.842 0 0 1 71.641 78.313 Q 71.513 78.329 71.4 78.329 Q 69.3 78.329 67.25 77.529 A 13.787 13.787 0 0 1 63.63 75.416 A 15.572 15.572 0 0 1 63.4 75.229 Q 61.6 73.729 60.25 71.679 A 13.862 13.862 0 0 1 58.511 67.847 A 16.139 16.139 0 0 1 58.3 67.029 Q 58.1 66.229 58.1 65.729 A 31.151 31.151 0 0 1 54.907 70.649 A 24.452 24.452 0 0 1 51.35 74.279 A 16.171 16.171 0 0 1 44.992 77.437 A 21.749 21.749 0 0 1 41.4 78.029 A 14.796 14.796 0 0 1 40.545 78.061 Q 36.672 78.095 34.55 75.929 Q 32.2 73.529 31.3 70.129 Q 30.4 66.729 30.7 62.979 A 38.522 38.522 0 0 1 30.98 60.458 Q 31.288 58.366 31.8 56.829 A 55.775 55.775 0 0 1 34.767 49.588 A 45.061 45.061 0 0 1 37.6 44.679 A 36.985 36.985 0 0 1 39.897 41.572 Q 41.073 40.156 42.248 39.095 A 15.232 15.232 0 0 1 44.6 37.329 Q 44.745 37.183 44.996 37.064 A 2.643 2.643 0 0 1 45.2 36.979 Q 45.564 36.842 45.679 36.912 A 0.109 0.109 0 0 1 45.7 36.929 A 0.183 0.183 0 0 1 45.744 36.958 Q 45.855 37.062 45.626 37.302 A 1.569 1.569 0 0 1 45.6 37.329 L 45.2 37.729 Q 39.8 43.129 36.85 50.079 Q 33.9 57.029 33.7 64.229 A 22.241 22.241 0 0 0 33.667 65.462 Q 33.667 66.333 33.73 67.267 A 31.376 31.376 0 0 0 33.8 68.129 A 14.032 14.032 0 0 0 34.681 71.905 A 13.212 13.212 0 0 0 34.75 72.079 Q 35.5 73.929 36.9 75.179 A 4.714 4.714 0 0 0 38.899 76.218 Q 39.614 76.402 40.457 76.425 A 8.927 8.927 0 0 0 40.7 76.429 A 10.256 10.256 0 0 0 41.002 76.433 Q 44.236 76.433 47.15 74.379 Q 50.2 72.229 52.45 69.079 Q 54.7 65.929 56.1 62.329 A 27.959 27.959 0 0 0 57.095 59.293 Q 57.495 57.768 57.644 56.368 A 16.196 16.196 0 0 0 57.7 55.729 Q 57 56.529 56.5 57.379 A 12.799 12.799 0 0 1 56.005 58.151 Q 55.739 58.537 55.419 58.95 A 22.187 22.187 0 0 1 55.2 59.229 Q 55.113 59.403 54.72 59.769 A 9.679 9.679 0 0 1 54.6 59.879 A 2.6 2.6 0 0 1 54.41 60.035 Q 54.124 60.247 53.916 60.247 A 0.364 0.364 0 0 1 53.8 60.229 A 0.107 0.107 0 0 1 53.749 60.166 Q 53.681 59.981 53.909 59.326 A 9.378 9.378 0 0 1 54 59.079 Q 54.4 58.029 55 56.779 Q 55.6 55.529 56.2 54.379 A 348.902 348.902 0 0 0 56.443 53.911 Q 56.844 53.141 57 52.829 Q 58.1 50.529 58.7 48.229 Q 59.3 45.929 60.1 43.229 Z M 219.4 43.229 Q 215.8 50.229 212 56.379 Q 208.2 62.529 203.3 67.629 A 9.573 9.573 0 0 1 202.734 68.187 Q 200.143 70.52 199.6 66.629 A 25.981 25.981 0 0 1 199.556 65.103 Q 199.556 62.912 199.915 60.602 A 33.332 33.332 0 0 1 200.1 59.529 Q 200.8 55.829 202.2 52.529 Q 203.5 49.329 205.4 46.329 Q 207.3 43.329 209.8 40.829 Q 212.3 38.329 215.35 36.629 Q 218.4 34.929 221.9 34.329 Q 223.1 30.129 224.2 26.079 A 93.583 93.583 0 0 0 225.911 18.617 A 85.96 85.96 0 0 0 226 18.129 A 47.587 47.587 0 0 0 226.697 12.187 A 42.214 42.214 0 0 0 226.75 10.579 A 35.418 35.418 0 0 0 226.753 10.093 Q 226.753 7.343 226.322 4.794 A 28.661 28.661 0 0 0 226.1 3.629 A 6.871 6.871 0 0 1 226.055 3.488 Q 225.932 3.092 225.98 3.037 A 0.025 0.025 0 0 1 226 3.029 Q 226.185 2.936 226.327 3.186 A 0.898 0.898 0 0 1 226.35 3.229 Q 226.473 3.475 226.495 3.587 A 0.221 0.221 0 0 1 226.5 3.629 A 22.221 22.221 0 0 1 228.851 13.704 A 24.663 24.663 0 0 1 228.85 13.929 Q 228.8 19.429 227.5 25.329 A 133.681 133.681 0 0 1 224.491 36.567 A 146.12 146.12 0 0 1 224.25 37.329 Q 222.3 43.429 220.9 49.529 A 41.712 41.712 0 0 0 219.994 55.419 A 49.147 49.147 0 0 0 219.85 57.879 A 34.381 34.381 0 0 0 219.83 59.037 A 33.406 33.406 0 0 0 220.7 66.629 Q 221.7 71.129 224.4 74.279 A 11.368 11.368 0 0 0 226.538 76.24 A 8.262 8.262 0 0 0 230.6 77.729 A 5.041 5.041 0 0 1 230.851 77.766 Q 231.378 77.859 231.399 78.015 A 0.098 0.098 0 0 1 231.4 78.029 A 0.234 0.234 0 0 1 231.369 78.15 Q 231.318 78.237 231.179 78.272 A 0.614 0.614 0 0 1 231.15 78.279 A 2.842 2.842 0 0 1 230.941 78.313 Q 230.813 78.329 230.7 78.329 Q 228.6 78.329 226.55 77.529 A 13.787 13.787 0 0 1 222.93 75.416 A 15.572 15.572 0 0 1 222.7 75.229 Q 220.9 73.729 219.55 71.679 A 13.862 13.862 0 0 1 217.811 67.847 A 16.139 16.139 0 0 1 217.6 67.029 Q 217.4 66.229 217.4 65.729 A 31.151 31.151 0 0 1 214.207 70.649 A 24.452 24.452 0 0 1 210.65 74.279 A 16.171 16.171 0 0 1 204.292 77.437 A 21.749 21.749 0 0 1 200.7 78.029 A 14.796 14.796 0 0 1 199.845 78.061 Q 195.972 78.095 193.85 75.929 Q 191.5 73.529 190.6 70.129 Q 189.7 66.729 190 62.979 A 38.522 38.522 0 0 1 190.28 60.458 Q 190.588 58.366 191.1 56.829 A 55.775 55.775 0 0 1 194.067 49.588 A 45.061 45.061 0 0 1 196.9 44.679 A 36.985 36.985 0 0 1 199.197 41.572 Q 200.373 40.156 201.548 39.095 A 15.232 15.232 0 0 1 203.9 37.329 Q 204.045 37.183 204.296 37.064 A 2.643 2.643 0 0 1 204.5 36.979 Q 204.864 36.842 204.979 36.912 A 0.109 0.109 0 0 1 205 36.929 A 0.183 0.183 0 0 1 205.044 36.958 Q 205.155 37.062 204.926 37.302 A 1.569 1.569 0 0 1 204.9 37.329 L 204.5 37.729 Q 199.1 43.129 196.15 50.079 Q 193.2 57.029 193 64.229 A 22.241 22.241 0 0 0 192.967 65.462 Q 192.967 66.333 193.03 67.267 A 31.376 31.376 0 0 0 193.1 68.129 A 14.032 14.032 0 0 0 193.981 71.905 A 13.212 13.212 0 0 0 194.05 72.079 Q 194.8 73.929 196.2 75.179 A 4.714 4.714 0 0 0 198.199 76.218 Q 198.914 76.402 199.757 76.425 A 8.927 8.927 0 0 0 200 76.429 A 10.256 10.256 0 0 0 200.302 76.433 Q 203.536 76.433 206.45 74.379 Q 209.5 72.229 211.75 69.079 Q 214 65.929 215.4 62.329 A 27.959 27.959 0 0 0 216.395 59.293 Q 216.795 57.768 216.944 56.368 A 16.196 16.196 0 0 0 217 55.729 Q 216.3 56.529 215.8 57.379 A 12.799 12.799 0 0 1 215.305 58.151 Q 215.039 58.537 214.719 58.95 A 22.187 22.187 0 0 1 214.5 59.229 Q 214.413 59.403 214.02 59.769 A 9.679 9.679 0 0 1 213.9 59.879 A 2.6 2.6 0 0 1 213.71 60.035 Q 213.424 60.247 213.216 60.247 A 0.364 0.364 0 0 1 213.1 60.229 A 0.107 0.107 0 0 1 213.049 60.166 Q 212.981 59.981 213.209 59.326 A 9.378 9.378 0 0 1 213.3 59.079 Q 213.7 58.029 214.3 56.779 Q 214.9 55.529 215.5 54.379 A 348.902 348.902 0 0 0 215.743 53.911 Q 216.144 53.141 216.3 52.829 Q 217.4 50.529 218 48.229 Q 218.6 45.929 219.4 43.229 Z M 257.4 63.329 L 251.4 91.229 A 33.146 33.146 0 0 0 251.264 91.868 Q 251.201 92.183 251.152 92.46 A 16.305 16.305 0 0 0 251.1 92.779 A 3 3 0 0 1 251.075 92.922 Q 250.976 93.405 250.8 93.229 Q 250.5 93.429 250.45 92.579 A 28.445 28.445 0 0 1 250.401 91.129 A 25.903 25.903 0 0 1 250.4 90.929 A 114.204 114.204 0 0 1 251.269 77.135 A 136.508 136.508 0 0 1 252.25 70.479 Q 254.1 59.729 257.8 49.029 Q 257.341 48.875 256.969 48.84 A 2.281 2.281 0 0 0 256.75 48.829 A 4.546 4.546 0 0 1 256.138 48.786 A 5.501 5.501 0 0 1 255.8 48.729 Q 254.3 52.629 253.05 56.529 Q 251.8 60.429 250.6 64.229 Q 250.6 64.429 250.45 64.879 A 16.089 16.089 0 0 1 250.243 65.461 A 19.442 19.442 0 0 1 250.1 65.829 Q 249.9 66.329 249.65 66.679 A 3.523 3.523 0 0 1 249.562 66.798 Q 249.432 66.964 249.353 67.011 A 0.108 0.108 0 0 1 249.3 67.029 A 0.048 0.048 0 0 1 249.257 66.999 Q 249.217 66.926 249.245 66.672 A 2.996 2.996 0 0 1 249.25 66.629 A 21.333 21.333 0 0 0 249.288 66.307 Q 249.319 66.022 249.35 65.679 L 249.45 64.579 A 26.622 26.622 0 0 0 249.471 64.34 Q 249.5 63.982 249.5 63.829 A 34.462 34.462 0 0 1 249.72 61.732 Q 250.009 59.568 250.6 56.779 Q 251.5 52.529 252.6 48.429 A 8.359 8.359 0 0 1 251.279 48.328 A 6.788 6.788 0 0 1 250.4 48.129 A 69.407 69.407 0 0 0 248.333 54.702 A 63.418 63.418 0 0 0 248.1 55.629 Q 247.2 59.329 246.4 63.129 Q 245.3 68.729 244.85 74.579 A 96.967 96.967 0 0 0 244.561 82.017 A 91.864 91.864 0 0 0 244.65 86.079 Q 244.9 91.729 245.85 97.029 A 58.653 58.653 0 0 0 247.42 103.64 A 49.594 49.594 0 0 0 248.5 106.829 A 52.675 52.675 0 0 0 248.643 107.182 Q 248.7 107.321 248.751 107.445 A 26.629 26.629 0 0 0 248.85 107.679 A 1.299 1.299 0 0 1 248.877 107.747 Q 248.97 108.003 248.831 108.026 A 0.184 0.184 0 0 1 248.8 108.029 A 0.512 0.512 0 0 1 248.547 107.957 Q 248.384 107.866 248.222 107.657 A 2.012 2.012 0 0 1 248.2 107.629 A 41.931 41.931 0 0 1 243.825 97.664 A 46.351 46.351 0 0 1 243.8 97.579 Q 242.2 92.129 241.75 86.029 Q 241.3 79.929 241.85 73.429 Q 242.4 66.929 243.8 60.329 Q 245.1 53.729 247.1 47.429 A 24.056 24.056 0 0 0 246.528 47.293 Q 246.075 47.191 245.7 47.129 Q 245.1 47.029 244.5 46.829 Q 244.347 46.752 244.077 46.646 A 13.097 13.097 0 0 0 243.9 46.579 A 1.497 1.497 0 0 1 243.754 46.516 Q 243.609 46.443 243.547 46.36 A 0.216 0.216 0 0 1 243.5 46.229 Q 243.5 46.069 243.69 45.973 A 0.822 0.822 0 0 1 243.8 45.929 Q 244.1 45.829 244.3 45.729 A 17.304 17.304 0 0 1 250.216 44.672 A 17.119 17.119 0 0 1 251.6 44.729 Q 255.3 45.029 259.1 45.729 Q 261.4 46.129 263.85 46.329 A 10.085 10.085 0 0 0 264.671 46.362 Q 266.153 46.362 267.689 45.931 A 13.582 13.582 0 0 0 268.9 45.529 A 1.824 1.824 0 0 1 268.983 45.49 Q 269.3 45.35 269.3 45.529 A 0.17 0.17 0 0 1 269.286 45.584 Q 269.236 45.712 269.01 46.061 A 15.266 15.266 0 0 1 268.9 46.229 A 5.135 5.135 0 0 1 266.139 48.334 A 6.775 6.775 0 0 1 265.65 48.479 Q 263.5 49.029 261.2 49.129 Q 259.8 53.329 258.85 57.029 A 150.289 150.289 0 0 0 258.201 59.649 Q 257.957 60.676 257.756 61.596 A 73.036 73.036 0 0 0 257.4 63.329 Z M 142.464 70.836 A 128.056 128.056 0 0 0 144.3 68.329 Q 144.9 71.129 146.35 73.679 A 11.098 11.098 0 0 0 148.197 76.075 A 14.066 14.066 0 0 0 150.7 78.029 Q 151.12 78.281 151.258 78.25 A 0.083 0.083 0 0 0 151.3 78.229 L 151 77.829 Q 147.3 73.429 146.75 67.979 A 33.758 33.758 0 0 1 146.577 64.587 A 31.15 31.15 0 0 1 147.4 57.429 Q 148.3 53.829 149.7 50.279 Q 151.1 46.729 152.15 43.329 Q 153.2 39.929 153.6 36.629 Q 153.747 35.417 153.678 34.205 A 14.6 14.6 0 0 0 152.8 30.029 Q 152.6 29.529 152.35 29.229 A 1.235 1.235 0 0 0 152.303 29.175 Q 152.081 28.938 151.9 29.029 L 151.7 30.129 Q 151.6 30.929 151.45 31.729 A 255.516 255.516 0 0 0 151.351 32.258 Q 151.3 32.537 151.243 32.846 A 477.381 477.381 0 0 0 151.1 33.629 Q 147.6 34.229 144.5 35.979 Q 141.4 37.729 138.85 40.179 Q 136.3 42.629 134.35 45.629 Q 132.4 48.629 131.1 51.829 A 38.255 38.255 0 0 0 130.136 54.517 A 30.499 30.499 0 0 0 129.15 58.529 A 28.293 28.293 0 0 0 128.747 63.329 A 30.633 30.633 0 0 0 128.8 65.129 A 8.728 8.728 0 0 0 128.832 65.425 Q 129.076 67.37 130.1 67.929 Q 131.009 68.425 132.329 67.349 A 7.657 7.657 0 0 0 132.9 66.829 Q 135.1 64.629 136.95 62.479 Q 138.8 60.329 140.55 58.079 Q 142.3 55.829 143.85 53.379 A 122.195 122.195 0 0 0 144.824 51.813 A 143.51 143.51 0 0 0 147 48.129 Q 146.5 49.529 146.25 50.379 Q 146 51.229 145.75 51.979 A 42.256 42.256 0 0 0 145.563 52.555 A 50.176 50.176 0 0 0 145.25 53.579 Q 145 54.429 144.7 55.829 Q 144.2 57.729 143.95 59.629 Q 143.7 61.529 143.7 63.529 Q 142 66.229 140 68.729 Q 139.1 69.829 137.95 71.079 Q 136.8 72.329 135.4 73.379 Q 134 74.429 132.4 75.079 A 8.499 8.499 0 0 1 131.265 75.449 A 9.702 9.702 0 0 1 128.9 75.729 A 8.927 8.927 0 0 1 128.657 75.725 Q 127.814 75.702 127.099 75.518 A 4.714 4.714 0 0 1 125.1 74.479 Q 123.7 73.229 122.95 71.379 A 14.333 14.333 0 0 1 122.855 71.139 A 15.347 15.347 0 0 1 121.95 67.429 Q 121.7 65.329 121.8 63.529 Q 122.2 56.329 125.25 49.529 Q 128.3 42.729 133.5 37.329 A 2.339 2.339 0 0 0 133.535 37.293 Q 133.63 37.194 133.725 37.072 A 4.019 4.019 0 0 0 133.9 36.829 A 2.914 2.914 0 0 0 133.915 36.805 Q 134.096 36.529 134 36.529 Q 134 36.258 133.715 36.395 A 1.016 1.016 0 0 0 133.65 36.429 A 5.194 5.194 0 0 1 133.527 36.497 Q 133.347 36.593 133.255 36.619 A 0.212 0.212 0 0 1 133.2 36.629 A 12.115 12.115 0 0 0 132.915 36.792 Q 132.043 37.308 131.159 38.023 A 20.616 20.616 0 0 0 129.55 39.479 A 27.062 27.062 0 0 0 127.894 41.299 A 34.809 34.809 0 0 0 125.95 43.879 Q 124.2 46.429 122.65 49.579 Q 121.1 52.729 120 56.229 Q 119.2 58.729 118.95 62.579 Q 118.7 66.429 119.6 70.029 A 15.891 15.891 0 0 0 119.848 70.911 A 13.276 13.276 0 0 0 122.85 76.129 A 6.755 6.755 0 0 0 123.467 76.708 Q 125.565 78.443 129.045 78.443 A 14.751 14.751 0 0 0 129.7 78.429 A 17.648 17.648 0 0 0 131.948 78.207 A 13.294 13.294 0 0 0 134.5 77.529 Q 136.6 76.729 138.3 75.379 Q 140 74.029 141.4 72.229 A 106.26 106.26 0 0 0 142.464 70.836 Z M 273.6 35.729 L 273.3 36.129 A 9.446 9.446 0 0 1 271.827 37.764 A 6.612 6.612 0 0 1 269.05 39.229 Q 266.6 39.829 263.9 39.529 A 42.413 42.413 0 0 1 259.413 38.777 A 47.731 47.731 0 0 1 258.35 38.529 Q 255.5 37.829 252.8 37.729 Q 250.232 37.582 247.611 38.484 A 17.131 17.131 0 0 0 245.7 39.279 Q 242.416 40.875 239.965 44.759 A 22.98 22.98 0 0 0 239.5 45.529 A 2.022 2.022 0 0 1 239.438 45.67 Q 239.269 46.013 239.1 45.929 A 0.051 0.051 0 0 1 239.053 45.897 Q 239.018 45.829 239.045 45.617 A 2.309 2.309 0 0 1 239.05 45.579 A 2.916 2.916 0 0 1 239.086 45.374 Q 239.131 45.166 239.2 45.029 A 21.482 21.482 0 0 1 240.171 42.595 Q 240.771 41.334 241.492 40.315 A 12.77 12.77 0 0 1 241.7 40.029 A 15.827 15.827 0 0 1 243.352 38.142 A 12.347 12.347 0 0 1 244.95 36.829 A 12.466 12.466 0 0 1 247.29 35.555 A 10.782 10.782 0 0 1 248.55 35.129 A 14.105 14.105 0 0 1 251.749 34.636 A 13.035 13.035 0 0 1 252.2 34.629 Q 257.2 24.029 263.95 15.329 A 83.709 83.709 0 0 1 273.539 4.857 A 71.921 71.921 0 0 1 278.6 0.629 Q 278.9 0.429 279.15 0.179 Q 279.4 -0.071 279.6 0.029 A 0.115 0.115 0 0 1 279.64 0.035 Q 279.763 0.08 279.51 0.464 A 3.408 3.408 0 0 1 279.5 0.479 A 16.957 16.957 0 0 1 279.395 0.635 Q 279.234 0.87 279.148 0.975 A 0.777 0.777 0 0 1 279.1 1.029 A 143.194 143.194 0 0 0 270.465 11.296 A 168.29 168.29 0 0 0 266.65 16.479 Q 260.6 25.029 255.8 34.829 Q 256.2 35.029 256.65 35.029 Q 257.1 35.029 257.5 35.129 Q 258.6 32.629 259.95 29.779 A 73.257 73.257 0 0 1 262.58 24.753 A 80.692 80.692 0 0 1 263 24.029 Q 264.7 20.929 266.75 18.079 A 84.176 84.176 0 0 1 269.569 14.373 A 71.717 71.717 0 0 1 270.85 12.829 Q 272.9 10.429 274.6 8.529 Q 275.902 7.074 276.793 6.088 A 278.472 278.472 0 0 1 277.3 5.529 Q 277.7 5.129 278.05 4.829 Q 278.313 4.604 278.491 4.604 A 0.241 0.241 0 0 1 278.6 4.629 A 0.171 0.171 0 0 1 278.697 4.764 Q 278.713 4.873 278.635 5.053 A 1.539 1.539 0 0 1 278.6 5.129 A 7.692 7.692 0 0 1 278.403 5.498 Q 278.303 5.673 278.203 5.824 A 4.932 4.932 0 0 1 278.2 5.829 Q 277 8.229 275.25 11.379 Q 273.5 14.529 271.55 17.879 Q 269.6 21.229 267.7 24.579 A 935.991 935.991 0 0 0 265.927 27.719 Q 265.089 29.209 264.348 30.543 A 557.828 557.828 0 0 0 264.3 30.629 Q 263.6 31.929 262.85 33.179 Q 262.1 34.429 261.5 35.829 A 3.743 3.743 0 0 1 262.296 35.918 A 5.088 5.088 0 0 1 263 36.129 Q 265.2 31.629 267.65 27.279 A 146.896 146.896 0 0 1 272.955 18.597 A 157.54 157.54 0 0 1 273 18.529 Q 273.316 18.133 273.414 17.957 A 0.492 0.492 0 0 0 273.45 17.879 A 0.143 0.143 0 0 1 273.464 17.848 Q 273.524 17.752 273.7 17.929 A 0.093 0.093 0 0 1 273.721 17.966 Q 273.774 18.133 273.6 18.829 Q 272.5 21.729 270.35 26.529 Q 268.2 31.329 266 36.529 Q 268 36.729 269.8 36.529 Q 271.6 36.329 273.3 35.529 Q 273.4 35.529 273.5 35.479 Q 273.586 35.436 273.598 35.649 A 1.381 1.381 0 0 1 273.6 35.728 Z M 91.9 35.729 L 91.5 35.929 A 17.671 17.671 0 0 0 89.78 37.136 Q 88.786 37.919 87.75 38.929 A 27.575 27.575 0 0 0 85.277 41.702 A 33.489 33.489 0 0 0 84.05 43.379 A 38.085 38.085 0 0 0 81.641 47.421 A 44.46 44.46 0 0 0 80.85 49.029 Q 79.4 52.129 78.4 55.429 A 18.143 18.143 0 0 0 78.01 57.04 Q 77.846 57.878 77.725 58.83 A 33.287 33.287 0 0 0 77.65 59.479 A 28.496 28.496 0 0 0 77.494 62.494 A 32.089 32.089 0 0 0 77.55 64.379 Q 77.7 66.929 78.25 69.479 A 14.63 14.63 0 0 0 79.15 72.295 A 12.281 12.281 0 0 0 80.05 73.979 Q 81.3 75.929 83.25 77.079 A 6.881 6.881 0 0 0 85.466 77.897 Q 86.667 78.127 88.1 78.029 Q 90.108 77.89 91.565 77.464 A 8.783 8.783 0 0 0 92.75 77.029 A 17.171 17.171 0 0 0 94.065 76.362 Q 94.947 75.863 95.6 75.329 A 21.591 21.591 0 0 0 97.531 73.622 A 18.923 18.923 0 0 0 98.1 73.029 Q 99.2 71.829 100.3 70.729 Q 99.841 73.408 99.411 75.472 A 80.143 80.143 0 0 1 99.15 76.679 Q 98.6 79.129 98.1 81.329 Q 97.4 84.329 96.8 87.079 A 57.303 57.303 0 0 1 96.216 89.514 Q 95.915 90.651 95.593 91.647 A 33.486 33.486 0 0 1 95.5 91.929 A 19.413 19.413 0 0 1 94.947 93.398 Q 94.629 94.144 94.277 94.764 A 10.014 10.014 0 0 1 93.9 95.379 Q 93.251 96.352 92.447 96.727 A 2.49 2.49 0 0 1 91.8 96.929 Q 90.59 96.929 90.426 97.153 A 0.126 0.126 0 0 0 90.4 97.229 Q 90.311 97.496 90.7 97.684 A 1.568 1.568 0 0 0 90.8 97.729 A 5.715 5.715 0 0 0 91.769 98.022 A 5.316 5.316 0 0 0 91.8 98.029 A 4.108 4.108 0 0 0 92.607 98.11 Q 93.569 98.11 94.465 97.633 A 4.685 4.685 0 0 0 94.65 97.529 A 6.889 6.889 0 0 0 96.184 96.275 A 9.145 9.145 0 0 0 97.05 95.179 A 17.165 17.165 0 0 0 98.109 93.376 A 22.885 22.885 0 0 0 98.95 91.529 Q 99.8 89.429 100.4 87.229 A 127.346 127.346 0 0 0 102.14 79.644 A 114.281 114.281 0 0 0 102.4 78.279 A 242.045 242.045 0 0 0 103.544 71.5 A 277.677 277.677 0 0 0 103.9 69.129 Q 104.6 64.429 105.05 59.729 Q 105.5 55.029 106.6 50.229 A 34.028 34.028 0 0 1 107.453 47.27 A 40.052 40.052 0 0 1 107.95 45.879 Q 108.8 43.629 109.3 41.429 A 0.893 0.893 0 0 1 109.309 41.311 Q 109.335 41.124 109.429 40.8 A 8.842 8.842 0 0 1 109.45 40.729 Q 109.6 40.229 109.5 40.229 A 0.135 0.135 0 0 0 109.439 40.214 Q 109.272 40.214 108.998 40.588 A 3.885 3.885 0 0 0 108.9 40.729 Q 108.5 41.329 108.5 41.429 Q 107.1 43.729 106 46.279 Q 104.9 48.829 104 50.929 Q 103.807 51.411 103.194 52.547 A 57.847 57.847 0 0 1 103.15 52.629 Q 102.5 53.829 101.85 55.179 Q 101.2 56.529 100.75 57.679 A 7.053 7.053 0 0 0 100.638 57.983 Q 100.342 58.857 100.6 59.029 A 0.283 0.283 0 0 0 100.716 58.999 Q 100.903 58.913 101.2 58.579 Q 101.585 58.145 101.785 57.944 A 4.828 4.828 0 0 1 101.8 57.929 A 12.957 12.957 0 0 1 102.169 57.35 A 16.311 16.311 0 0 1 102.5 56.879 A 28.913 28.913 0 0 1 103.25 55.891 A 26.418 26.418 0 0 1 103.3 55.829 Q 102.7 58.329 102.25 59.979 Q 101.8 61.629 101.3 62.929 Q 100.8 64.229 100.15 65.379 A 19.736 19.736 0 0 1 99.599 66.29 Q 99.279 66.791 98.891 67.345 A 39.937 39.937 0 0 1 98.4 68.029 Q 97.625 69.094 96.523 70.299 A 36.605 36.605 0 0 1 96.45 70.379 Q 95.3 71.629 93.85 72.679 Q 92.4 73.729 90.7 74.379 Q 89 75.029 87.1 75.029 Q 84.7 75.029 83.3 73.779 A 7.759 7.759 0 0 1 81.211 70.707 A 8.986 8.986 0 0 1 81.2 70.679 Q 80.5 68.829 80.3 66.729 A 29.589 29.589 0 0 1 80.18 64.867 Q 80.167 64.458 80.167 64.062 A 22.241 22.241 0 0 1 80.2 62.829 Q 80.6 55.629 83.55 48.779 Q 86.5 41.929 91.8 36.529 A 0.134 0.134 0 0 1 91.814 36.475 Q 91.866 36.363 92.1 36.129 A 3.984 3.984 0 0 0 92.202 36.023 Q 92.345 35.869 92.385 35.784 A 0.138 0.138 0 0 0 92.4 35.729 A 0.365 0.365 0 0 0 92.309 35.661 Q 92.136 35.572 91.9 35.729 Z M 282.6 35.729 L 282.2 35.929 A 17.671 17.671 0 0 0 280.48 37.136 Q 279.486 37.919 278.45 38.929 A 27.575 27.575 0 0 0 275.977 41.702 A 33.489 33.489 0 0 0 274.75 43.379 A 38.085 38.085 0 0 0 272.341 47.421 A 44.46 44.46 0 0 0 271.55 49.029 Q 270.1 52.129 269.1 55.429 A 18.143 18.143 0 0 0 268.71 57.04 Q 268.546 57.878 268.425 58.83 A 33.287 33.287 0 0 0 268.35 59.479 A 28.496 28.496 0 0 0 268.194 62.494 A 32.089 32.089 0 0 0 268.25 64.379 Q 268.4 66.929 268.95 69.479 A 14.63 14.63 0 0 0 269.85 72.295 A 12.281 12.281 0 0 0 270.75 73.979 Q 272 75.929 273.95 77.079 A 6.881 6.881 0 0 0 276.166 77.897 Q 277.367 78.127 278.8 78.029 Q 280.808 77.89 282.265 77.464 A 8.783 8.783 0 0 0 283.45 77.029 A 17.171 17.171 0 0 0 284.765 76.362 Q 285.647 75.863 286.3 75.329 A 21.591 21.591 0 0 0 288.231 73.622 A 18.923 18.923 0 0 0 288.8 73.029 Q 289.9 71.829 291 70.729 Q 290.541 73.408 290.111 75.472 A 80.143 80.143 0 0 1 289.85 76.679 Q 289.3 79.129 288.8 81.329 Q 288.1 84.329 287.5 87.079 A 57.303 57.303 0 0 1 286.916 89.514 Q 286.615 90.651 286.293 91.647 A 33.486 33.486 0 0 1 286.2 91.929 A 19.413 19.413 0 0 1 285.647 93.398 Q 285.329 94.144 284.977 94.764 A 10.014 10.014 0 0 1 284.6 95.379 Q 283.951 96.352 283.147 96.727 A 2.49 2.49 0 0 1 282.5 96.929 Q 281.29 96.929 281.126 97.153 A 0.126 0.126 0 0 0 281.1 97.229 Q 281.011 97.496 281.4 97.684 A 1.568 1.568 0 0 0 281.5 97.729 A 5.715 5.715 0 0 0 282.469 98.022 A 5.316 5.316 0 0 0 282.5 98.029 A 4.108 4.108 0 0 0 283.307 98.11 Q 284.269 98.11 285.165 97.633 A 4.685 4.685 0 0 0 285.35 97.529 A 6.889 6.889 0 0 0 286.884 96.275 A 9.145 9.145 0 0 0 287.75 95.179 A 17.165 17.165 0 0 0 288.809 93.376 A 22.885 22.885 0 0 0 289.65 91.529 Q 290.5 89.429 291.1 87.229 A 127.346 127.346 0 0 0 292.84 79.644 A 114.281 114.281 0 0 0 293.1 78.279 A 242.045 242.045 0 0 0 294.244 71.5 A 277.677 277.677 0 0 0 294.6 69.129 Q 295.3 64.429 295.75 59.729 Q 296.2 55.029 297.3 50.229 A 34.028 34.028 0 0 1 298.153 47.27 A 40.052 40.052 0 0 1 298.65 45.879 Q 299.5 43.629 300 41.429 A 0.893 0.893 0 0 1 300.009 41.311 Q 300.035 41.124 300.129 40.8 A 8.842 8.842 0 0 1 300.15 40.729 Q 300.3 40.229 300.2 40.229 A 0.135 0.135 0 0 0 300.139 40.214 Q 299.972 40.214 299.698 40.588 A 3.885 3.885 0 0 0 299.6 40.729 Q 299.2 41.329 299.2 41.429 Q 297.8 43.729 296.7 46.279 Q 295.6 48.829 294.7 50.929 Q 294.507 51.411 293.894 52.547 A 57.847 57.847 0 0 1 293.85 52.629 Q 293.2 53.829 292.55 55.179 Q 291.9 56.529 291.45 57.679 A 7.053 7.053 0 0 0 291.338 57.983 Q 291.042 58.857 291.3 59.029 A 0.283 0.283 0 0 0 291.416 58.999 Q 291.603 58.913 291.9 58.579 Q 292.285 58.145 292.485 57.944 A 4.828 4.828 0 0 1 292.5 57.929 A 12.957 12.957 0 0 1 292.869 57.35 A 16.311 16.311 0 0 1 293.2 56.879 A 28.913 28.913 0 0 1 293.95 55.891 A 26.418 26.418 0 0 1 294 55.829 Q 293.4 58.329 292.95 59.979 Q 292.5 61.629 292 62.929 Q 291.5 64.229 290.85 65.379 A 19.736 19.736 0 0 1 290.299 66.29 Q 289.979 66.791 289.591 67.345 A 39.937 39.937 0 0 1 289.1 68.029 Q 288.325 69.094 287.223 70.299 A 36.605 36.605 0 0 1 287.15 70.379 Q 286 71.629 284.55 72.679 Q 283.1 73.729 281.4 74.379 Q 279.7 75.029 277.8 75.029 Q 275.4 75.029 274 73.779 A 7.759 7.759 0 0 1 271.911 70.707 A 8.986 8.986 0 0 1 271.9 70.679 Q 271.2 68.829 271 66.729 A 29.589 29.589 0 0 1 270.88 64.867 Q 270.867 64.458 270.867 64.062 A 22.241 22.241 0 0 1 270.9 62.829 Q 271.3 55.629 274.25 48.779 Q 277.2 41.929 282.5 36.529 A 0.134 0.134 0 0 1 282.514 36.475 Q 282.566 36.363 282.8 36.129 A 3.984 3.984 0 0 0 282.902 36.023 Q 283.045 35.869 283.085 35.784 A 0.138 0.138 0 0 0 283.1 35.729 A 0.365 0.365 0 0 0 283.009 35.661 Q 282.836 35.572 282.6 35.729 Z M 118.4 31.529 L 118.4 31.129 A 0.439 0.439 0 0 0 118.098 31.252 Q 117.989 31.35 117.9 31.529 Q 117.823 31.682 117.747 31.893 A 5.68 5.68 0 0 0 117.7 32.029 Q 114.7 38.229 113.5 44.779 Q 112.3 51.329 111.7 58.129 Q 111.1 64.929 110.5 71.829 Q 109.9 78.729 108.1 85.629 Q 107.5 87.829 106.9 90.229 Q 106.3 92.629 105.3 94.929 Q 104.3 97.229 102.65 99.279 A 11.865 11.865 0 0 1 100.212 101.536 A 15.664 15.664 0 0 1 98.2 102.729 A 14.727 14.727 0 0 1 96.161 103.632 Q 94.507 104.211 93.001 104.211 A 7.594 7.594 0 0 1 92.3 104.179 Q 89.6 103.929 87.3 102.729 Q 85 101.529 83.1 99.679 Q 81.467 98.089 80.204 96.757 A 70.611 70.611 0 0 1 79.8 96.329 A 5.087 5.087 0 0 1 79.55 96.059 A 6.126 6.126 0 0 1 79.4 95.879 Q 79.204 95.633 79.104 95.725 A 0.122 0.122 0 0 0 79.1 95.729 A 0.193 0.193 0 0 0 78.99 95.875 Q 78.971 95.982 79.038 96.151 A 1.224 1.224 0 0 0 79.05 96.179 Q 79.2 96.529 79.3 96.729 A 19.643 19.643 0 0 0 83.352 101.899 A 25.432 25.432 0 0 0 86.3 104.229 Q 87.331 104.979 88.802 105.553 A 15.748 15.748 0 0 0 89 105.629 A 15.377 15.377 0 0 0 91.653 106.352 A 17.702 17.702 0 0 0 92.45 106.479 Q 94.3 106.729 96.25 106.379 A 9.627 9.627 0 0 0 99.377 105.216 A 11.379 11.379 0 0 0 100 104.829 A 27.941 27.941 0 0 0 102.629 102.856 Q 103.957 101.724 104.96 100.533 A 16.552 16.552 0 0 0 105.25 100.179 A 26.791 26.791 0 0 0 107.554 96.802 A 22.961 22.961 0 0 0 108.4 95.179 Q 109.6 92.629 110.25 89.929 Q 110.9 87.229 111.5 84.629 Q 113.2 77.829 113.85 71.079 Q 114.5 64.329 114.9 57.729 Q 115.3 51.129 115.9 44.679 Q 116.5 38.229 118.2 32.129 Q 118.354 31.821 118.389 31.632 A 0.564 0.564 0 0 0 118.4 31.529 Z M 309.1 31.529 L 309.1 31.129 A 0.439 0.439 0 0 0 308.798 31.252 Q 308.689 31.35 308.6 31.529 Q 308.523 31.682 308.447 31.893 A 5.68 5.68 0 0 0 308.4 32.029 Q 305.4 38.229 304.2 44.779 Q 303 51.329 302.4 58.129 Q 301.8 64.929 301.2 71.829 Q 300.6 78.729 298.8 85.629 Q 298.2 87.829 297.6 90.229 Q 297 92.629 296 94.929 Q 295 97.229 293.35 99.279 A 11.865 11.865 0 0 1 290.912 101.536 A 15.664 15.664 0 0 1 288.9 102.729 A 14.727 14.727 0 0 1 286.861 103.632 Q 285.207 104.211 283.701 104.211 A 7.594 7.594 0 0 1 283 104.179 Q 280.3 103.929 278 102.729 Q 275.7 101.529 273.8 99.679 Q 272.167 98.089 270.904 96.757 A 70.611 70.611 0 0 1 270.5 96.329 A 5.087 5.087 0 0 1 270.25 96.059 A 6.126 6.126 0 0 1 270.1 95.879 Q 269.904 95.633 269.804 95.725 A 0.122 0.122 0 0 0 269.8 95.729 A 0.193 0.193 0 0 0 269.69 95.875 Q 269.671 95.982 269.738 96.151 A 1.224 1.224 0 0 0 269.75 96.179 Q 269.9 96.529 270 96.729 A 19.643 19.643 0 0 0 274.052 101.899 A 25.432 25.432 0 0 0 277 104.229 Q 278.031 104.979 279.502 105.553 A 15.748 15.748 0 0 0 279.7 105.629 A 15.377 15.377 0 0 0 282.353 106.352 A 17.702 17.702 0 0 0 283.15 106.479 Q 285 106.729 286.95 106.379 A 9.627 9.627 0 0 0 290.077 105.216 A 11.379 11.379 0 0 0 290.7 104.829 A 27.941 27.941 0 0 0 293.329 102.856 Q 294.657 101.724 295.66 100.533 A 16.552 16.552 0 0 0 295.95 100.179 A 26.791 26.791 0 0 0 298.254 96.802 A 22.961 22.961 0 0 0 299.1 95.179 Q 300.3 92.629 300.95 89.929 Q 301.6 87.229 302.2 84.629 Q 303.9 77.829 304.55 71.079 Q 305.2 64.329 305.6 57.729 Q 306 51.129 306.6 44.679 Q 307.2 38.229 308.9 32.129 Q 309.054 31.821 309.089 31.632 A 0.564 0.564 0 0 0 309.1 31.529 Z M 111.7 32.929 A 0.05 0.05 0 0 0 111.665 32.889 Q 111.567 32.84 111.187 32.831 A 7.821 7.821 0 0 0 111 32.829 A 1.887 1.887 0 0 0 110.402 32.928 A 2.009 2.009 0 0 0 110.4 32.929 A 19.816 19.816 0 0 0 104.235 34.574 A 18.686 18.686 0 0 0 103.4 34.979 Q 100.2 36.629 97.55 39.079 Q 94.9 41.529 92.85 44.629 Q 90.8 47.729 89.5 51.029 Q 88.1 54.429 87.4 58.229 A 33.273 33.273 0 0 0 86.932 61.805 Q 86.856 62.842 86.856 63.837 A 24.651 24.651 0 0 0 86.9 65.329 Q 87.191 69.493 90.483 66.341 A 13.973 13.973 0 0 0 90.7 66.129 Q 93.7 63.129 96.35 59.629 Q 99 56.129 101.35 52.229 Q 103.7 48.329 105.8 44.279 Q 107.9 40.229 110 36.129 Q 110.4 35.329 110.3 35.329 A 0.402 0.402 0 0 0 110.227 35.27 Q 110.077 35.177 109.901 35.292 A 0.635 0.635 0 0 0 109.85 35.329 A 1.026 1.026 0 0 0 109.735 35.435 Q 109.6 35.582 109.6 35.729 Q 104.2 42.629 99.55 48.929 A 206.419 206.419 0 0 0 91.987 59.877 A 186.791 186.791 0 0 0 91 61.429 Q 90.643 61.786 90.464 61.786 A 0.136 0.136 0 0 1 90.35 61.729 A 0.403 0.403 0 0 1 90.288 61.6 Q 90.235 61.422 90.283 61.123 A 2.525 2.525 0 0 1 90.3 61.029 Q 90.5 58.729 91.05 56.279 A 32.067 32.067 0 0 1 92.357 51.953 A 35.787 35.787 0 0 1 92.6 51.329 Q 95 45.229 99.5 40.529 Q 104 35.829 110.8 33.529 Q 111.644 33.153 111.697 32.954 A 0.1 0.1 0 0 0 111.7 32.929 Z M 302.4 32.929 A 0.05 0.05 0 0 0 302.365 32.889 Q 302.267 32.84 301.887 32.831 A 7.821 7.821 0 0 0 301.7 32.829 A 1.887 1.887 0 0 0 301.102 32.928 A 2.009 2.009 0 0 0 301.1 32.929 A 19.816 19.816 0 0 0 294.935 34.574 A 18.686 18.686 0 0 0 294.1 34.979 Q 290.9 36.629 288.25 39.079 Q 285.6 41.529 283.55 44.629 Q 281.5 47.729 280.2 51.029 Q 278.8 54.429 278.1 58.229 A 33.273 33.273 0 0 0 277.632 61.805 Q 277.556 62.842 277.556 63.837 A 24.651 24.651 0 0 0 277.6 65.329 Q 277.891 69.493 281.183 66.341 A 13.973 13.973 0 0 0 281.4 66.129 Q 284.4 63.129 287.05 59.629 Q 289.7 56.129 292.05 52.229 Q 294.4 48.329 296.5 44.279 Q 298.6 40.229 300.7 36.129 Q 301.1 35.329 301 35.329 A 0.402 0.402 0 0 0 300.927 35.27 Q 300.777 35.177 300.601 35.292 A 0.635 0.635 0 0 0 300.55 35.329 A 1.026 1.026 0 0 0 300.435 35.435 Q 300.3 35.582 300.3 35.729 Q 294.9 42.629 290.25 48.929 A 206.419 206.419 0 0 0 282.687 59.877 A 186.791 186.791 0 0 0 281.7 61.429 Q 281.343 61.786 281.164 61.786 A 0.136 0.136 0 0 1 281.05 61.729 A 0.403 0.403 0 0 1 280.988 61.6 Q 280.935 61.422 280.983 61.123 A 2.525 2.525 0 0 1 281 61.029 Q 281.2 58.729 281.75 56.279 A 32.067 32.067 0 0 1 283.057 51.953 A 35.787 35.787 0 0 1 283.3 51.329 Q 285.7 45.229 290.2 40.529 Q 294.7 35.829 301.5 33.529 Q 302.344 33.153 302.397 32.954 A 0.1 0.1 0 0 0 302.4 32.929 Z M 0 72.429 L 0.1 72.429 L 0.4 72.729 A 7.234 7.234 0 0 0 2.757 75.006 A 10.48 10.48 0 0 0 4.85 75.979 A 9.116 9.116 0 0 0 7.214 76.444 Q 9.424 76.593 12.1 75.829 Q 14.2 75.229 15.8 73.729 Q 17.4 72.229 18.45 70.379 Q 19.5 68.529 20.05 66.529 Q 20.6 64.529 20.7 62.829 A 44.597 44.597 0 0 0 20.729 61.237 A 42.369 42.369 0 0 0 20.55 57.329 Q 20.3 54.629 19.95 52.079 A 154.888 154.888 0 0 1 19.414 47.731 A 140.499 140.499 0 0 1 19.35 47.129 A 25.428 25.428 0 0 1 19.211 44.493 A 23.817 23.817 0 0 1 19.3 42.429 Q 19.441 40.666 20.079 39.5 A 4.37 4.37 0 0 1 20.7 38.629 Q 21.9 37.329 23.65 36.979 Q 25.124 36.684 26.704 37.063 A 8.78 8.78 0 0 1 27.3 37.229 Q 29.2 37.829 30.8 39.129 A 0.988 0.988 0 0 1 30.932 39.207 Q 31.164 39.373 31.11 39.595 A 0.423 0.423 0 0 1 31.1 39.629 A 0.292 0.292 0 0 1 31.096 39.677 Q 31.073 39.815 30.9 39.729 L 30.5 39.529 Q 27.276 38.483 25.305 38.728 A 4.885 4.885 0 0 0 24.75 38.829 Q 22.7 39.329 22.5 42.429 Q 22.321 45.651 22.903 49.875 A 61.609 61.609 0 0 0 23.05 50.879 A 50.115 50.115 0 0 1 23.555 55.854 Q 23.642 57.475 23.642 59.191 A 71.968 71.968 0 0 1 23.6 61.629 Q 23.7 63.629 23.15 66.229 Q 22.6 68.829 21.35 71.279 Q 20.1 73.729 18.05 75.629 Q 16 77.529 13.2 78.029 Q 7.9 78.829 4.75 77.429 A 9.519 9.519 0 0 1 1.967 75.586 A 8.568 8.568 0 0 1 0.2 73.129 A 19.684 19.684 0 0 1 0.132 72.921 Q 0.018 72.566 0.002 72.457 A 0.209 0.209 0 0 1 0 72.429 Z M 159.3 72.429 L 159.4 72.429 L 159.7 72.729 A 7.234 7.234 0 0 0 162.057 75.006 A 10.48 10.48 0 0 0 164.15 75.979 A 9.116 9.116 0 0 0 166.514 76.444 Q 168.724 76.593 171.4 75.829 Q 173.5 75.229 175.1 73.729 Q 176.7 72.229 177.75 70.379 Q 178.8 68.529 179.35 66.529 Q 179.9 64.529 180 62.829 A 44.597 44.597 0 0 0 180.029 61.237 A 42.369 42.369 0 0 0 179.85 57.329 Q 179.6 54.629 179.25 52.079 A 154.888 154.888 0 0 1 178.714 47.731 A 140.499 140.499 0 0 1 178.65 47.129 A 25.428 25.428 0 0 1 178.511 44.493 A 23.817 23.817 0 0 1 178.6 42.429 Q 178.741 40.666 179.379 39.5 A 4.37 4.37 0 0 1 180 38.629 Q 181.2 37.329 182.95 36.979 Q 184.424 36.684 186.004 37.063 A 8.78 8.78 0 0 1 186.6 37.229 Q 188.5 37.829 190.1 39.129 A 0.988 0.988 0 0 1 190.232 39.207 Q 190.464 39.373 190.41 39.595 A 0.423 0.423 0 0 1 190.4 39.629 A 0.292 0.292 0 0 1 190.396 39.677 Q 190.373 39.815 190.2 39.729 L 189.8 39.529 Q 186.576 38.483 184.605 38.728 A 4.885 4.885 0 0 0 184.05 38.829 Q 182 39.329 181.8 42.429 Q 181.621 45.651 182.203 49.875 A 61.609 61.609 0 0 0 182.35 50.879 A 50.115 50.115 0 0 1 182.855 55.854 Q 182.942 57.475 182.942 59.191 A 71.968 71.968 0 0 1 182.9 61.629 Q 183 63.629 182.45 66.229 Q 181.9 68.829 180.65 71.279 Q 179.4 73.729 177.35 75.629 Q 175.3 77.529 172.5 78.029 Q 167.2 78.829 164.05 77.429 A 9.519 9.519 0 0 1 161.267 75.586 A 8.568 8.568 0 0 1 159.5 73.129 A 19.684 19.684 0 0 1 159.432 72.921 Q 159.318 72.566 159.302 72.457 A 0.209 0.209 0 0 1 159.3 72.429 Z M 77.9 19.729 A 18.842 18.842 0 0 0 77.854 19.176 Q 77.603 16.635 76.7 14.829 Q 76.48 14.388 76.313 14.271 A 0.2 0.2 0 0 0 76.2 14.229 Q 76.108 14.229 76.143 14.271 A 0.109 0.109 0 0 0 76.15 14.279 A 0.075 0.075 0 0 1 76.165 14.307 Q 76.195 14.395 76.199 14.711 A 8.399 8.399 0 0 1 76.2 14.829 A 41.334 41.334 0 0 1 76.332 18.099 A 35.958 35.958 0 0 1 75.3 26.779 Q 73.9 32.429 72.5 37.629 Q 71.3 41.729 70.05 45.879 Q 68.8 50.029 68 54.079 Q 67.2 58.129 67.05 61.979 A 25.687 25.687 0 0 0 67.03 62.979 A 23.986 23.986 0 0 0 67.9 69.429 Q 68.1 69.929 68.35 70.429 Q 68.6 70.929 68.8 70.729 A 0.017 0.017 0 0 0 68.81 70.725 Q 68.888 70.672 68.898 69.733 A 27.823 27.823 0 0 0 68.9 69.429 A 26.872 26.872 0 0 1 68.988 67.316 Q 69.101 65.882 69.361 64.252 A 58.73 58.73 0 0 1 70.05 60.679 Q 71.2 55.529 72.6 50.329 A 284.071 284.071 0 0 0 72.708 49.938 Q 73.179 48.233 73.85 45.729 Q 74.6 42.929 75.4 39.679 Q 76.2 36.429 76.85 32.879 Q 77.5 29.329 77.8 25.979 Q 77.984 23.927 77.98 22.044 A 34.682 34.682 0 0 0 77.9 19.729 Z M 237.2 19.729 A 18.842 18.842 0 0 0 237.154 19.176 Q 236.903 16.635 236 14.829 Q 235.78 14.388 235.613 14.271 A 0.2 0.2 0 0 0 235.5 14.229 Q 235.408 14.229 235.443 14.271 A 0.109 0.109 0 0 0 235.45 14.279 A 0.075 0.075 0 0 1 235.465 14.307 Q 235.495 14.395 235.499 14.711 A 8.399 8.399 0 0 1 235.5 14.829 A 41.334 41.334 0 0 1 235.632 18.099 A 35.958 35.958 0 0 1 234.6 26.779 Q 233.2 32.429 231.8 37.629 Q 230.6 41.729 229.35 45.879 Q 228.1 50.029 227.3 54.079 Q 226.5 58.129 226.35 61.979 A 25.687 25.687 0 0 0 226.33 62.979 A 23.986 23.986 0 0 0 227.2 69.429 Q 227.4 69.929 227.65 70.429 Q 227.9 70.929 228.1 70.729 A 0.017 0.017 0 0 0 228.11 70.725 Q 228.188 70.672 228.198 69.733 A 27.823 27.823 0 0 0 228.2 69.429 A 26.872 26.872 0 0 1 228.288 67.316 Q 228.401 65.882 228.661 64.252 A 58.73 58.73 0 0 1 229.35 60.679 Q 230.5 55.529 231.9 50.329 A 284.071 284.071 0 0 0 232.008 49.938 Q 232.479 48.233 233.15 45.729 Q 233.9 42.929 234.7 39.679 Q 235.5 36.429 236.15 32.879 Q 236.8 29.329 237.1 25.979 Q 237.284 23.927 237.28 22.044 A 34.682 34.682 0 0 0 237.2 19.729 Z M 105.989 32.038 A 0.969 0.969 0 0 0 105.85 32.029 L 105.2 32.029 A 11.003 11.003 0 0 0 101.971 32.535 A 15.285 15.285 0 0 0 99.35 33.629 A 29.627 29.627 0 0 0 94.381 36.934 A 33.638 33.638 0 0 0 93.5 37.679 Q 90.7 40.129 88.5 43.079 A 31.707 31.707 0 0 0 86.786 45.612 Q 85.947 46.998 85.37 48.324 A 18.856 18.856 0 0 0 85.2 48.729 A 81.6 81.6 0 0 0 83.488 53.56 A 69.821 69.821 0 0 0 82.85 55.679 Q 81.9 59.029 81.8 62.429 Q 81.7 64.229 81.95 65.929 Q 82.2 67.629 82.9 69.629 A 3.984 3.984 0 0 0 83.558 70.863 A 3.642 3.642 0 0 0 84.25 71.529 A 5.218 5.218 0 0 0 85.445 72.196 A 4.538 4.538 0 0 0 86.25 72.429 Q 87.3 72.629 88.4 72.429 A 4.816 4.816 0 0 0 89.543 72.077 A 4.084 4.084 0 0 0 90.3 71.629 Q 90.382 71.547 90.63 71.332 A 32.141 32.141 0 0 1 90.75 71.229 A 12.277 12.277 0 0 0 91.357 70.671 A 13.669 13.669 0 0 0 91.45 70.579 A 11.873 11.873 0 0 0 91.756 70.261 Q 91.897 70.11 92.016 69.969 A 6.988 6.988 0 0 0 92.05 69.929 A 1.19 1.19 0 0 0 92.132 69.818 Q 92.281 69.591 92.2 69.429 Q 92.113 69.254 91.454 69.575 A 6.782 6.782 0 0 0 91.25 69.679 A 7.932 7.932 0 0 1 90.743 69.926 Q 90.482 70.041 90.249 70.116 A 3.156 3.156 0 0 1 89.8 70.229 Q 87.935 70.584 86.898 70.071 A 2.218 2.218 0 0 1 86.65 69.929 A 3.662 3.662 0 0 1 85.358 68.401 A 4.79 4.79 0 0 1 85.15 67.879 A 7.899 7.899 0 0 1 84.787 66.115 Q 84.731 65.519 84.75 64.879 Q 84.8 63.229 85 61.629 A 2.974 2.974 0 0 1 85 61.61 Q 85.004 61.015 85.242 59.577 A 46.343 46.343 0 0 1 85.25 59.529 A 24.852 24.852 0 0 1 85.487 58.312 Q 85.606 57.767 85.759 57.159 A 52.518 52.518 0 0 1 86.1 55.879 A 38.033 38.033 0 0 1 86.787 53.69 Q 87.156 52.622 87.617 51.462 A 61.963 61.963 0 0 1 87.75 51.129 A 41.014 41.014 0 0 1 89.932 46.579 A 45.59 45.59 0 0 1 90.3 45.929 Q 91.8 43.329 93.85 41.129 A 42.805 42.805 0 0 1 96.692 38.34 A 36.478 36.478 0 0 1 98 37.229 Q 100.1 35.529 102.05 34.429 A 24.288 24.288 0 0 1 103.326 33.755 Q 104.481 33.191 105.4 32.929 A 7.152 7.152 0 0 0 105.641 32.855 Q 105.998 32.74 106.133 32.642 A 0.264 0.264 0 0 0 106.2 32.579 A 0.596 0.596 0 0 0 106.297 32.299 A 0.75 0.75 0 0 0 106.3 32.229 Q 106.222 32.072 105.989 32.038 Z M 296.689 32.038 A 0.969 0.969 0 0 0 296.55 32.029 L 295.9 32.029 A 11.003 11.003 0 0 0 292.671 32.535 A 15.285 15.285 0 0 0 290.05 33.629 A 29.627 29.627 0 0 0 285.081 36.934 A 33.638 33.638 0 0 0 284.2 37.679 Q 281.4 40.129 279.2 43.079 A 31.707 31.707 0 0 0 277.486 45.612 Q 276.647 46.998 276.07 48.324 A 18.856 18.856 0 0 0 275.9 48.729 A 81.6 81.6 0 0 0 274.188 53.56 A 69.821 69.821 0 0 0 273.55 55.679 Q 272.6 59.029 272.5 62.429 Q 272.4 64.229 272.65 65.929 Q 272.9 67.629 273.6 69.629 A 3.984 3.984 0 0 0 274.258 70.863 A 3.642 3.642 0 0 0 274.95 71.529 A 5.218 5.218 0 0 0 276.145 72.196 A 4.538 4.538 0 0 0 276.95 72.429 Q 278 72.629 279.1 72.429 A 4.816 4.816 0 0 0 280.243 72.077 A 4.084 4.084 0 0 0 281 71.629 Q 281.082 71.547 281.33 71.332 A 32.141 32.141 0 0 1 281.45 71.229 A 12.277 12.277 0 0 0 282.057 70.671 A 13.669 13.669 0 0 0 282.15 70.579 A 11.873 11.873 0 0 0 282.456 70.261 Q 282.597 70.11 282.716 69.969 A 6.988 6.988 0 0 0 282.75 69.929 A 1.19 1.19 0 0 0 282.832 69.818 Q 282.981 69.591 282.9 69.429 Q 282.813 69.254 282.154 69.575 A 6.782 6.782 0 0 0 281.95 69.679 A 7.932 7.932 0 0 1 281.443 69.926 Q 281.182 70.041 280.949 70.116 A 3.156 3.156 0 0 1 280.5 70.229 Q 278.635 70.584 277.598 70.071 A 2.218 2.218 0 0 1 277.35 69.929 A 3.662 3.662 0 0 1 276.058 68.401 A 4.79 4.79 0 0 1 275.85 67.879 A 7.899 7.899 0 0 1 275.487 66.115 Q 275.431 65.519 275.45 64.879 Q 275.5 63.229 275.7 61.629 A 2.974 2.974 0 0 1 275.7 61.61 Q 275.704 61.015 275.942 59.577 A 46.343 46.343 0 0 1 275.95 59.529 A 24.852 24.852 0 0 1 276.187 58.312 Q 276.306 57.767 276.459 57.159 A 52.518 52.518 0 0 1 276.8 55.879 A 38.033 38.033 0 0 1 277.487 53.69 Q 277.856 52.622 278.317 51.462 A 61.963 61.963 0 0 1 278.45 51.129 A 41.014 41.014 0 0 1 280.632 46.579 A 45.59 45.59 0 0 1 281 45.929 Q 282.5 43.329 284.55 41.129 A 42.805 42.805 0 0 1 287.392 38.34 A 36.478 36.478 0 0 1 288.7 37.229 Q 290.8 35.529 292.75 34.429 A 24.288 24.288 0 0 1 294.026 33.755 Q 295.181 33.191 296.1 32.929 A 7.152 7.152 0 0 0 296.341 32.855 Q 296.698 32.74 296.833 32.642 A 0.264 0.264 0 0 0 296.9 32.579 A 0.596 0.596 0 0 0 296.997 32.299 A 0.75 0.75 0 0 0 297 32.229 Q 296.922 32.072 296.689 32.038 Z M 147.839 32.972 A 0.511 0.511 0 0 0 147.8 32.929 A 0.15 0.15 0 0 0 147.743 32.898 Q 147.567 32.839 146.936 32.83 A 16.799 16.799 0 0 0 146.7 32.829 A 12.044 12.044 0 0 0 143.669 33.344 A 16.115 16.115 0 0 0 140.9 34.479 A 26.682 26.682 0 0 0 139.599 35.197 A 29.733 29.733 0 0 0 135.15 38.429 Q 132.4 40.829 130.2 43.679 A 32.94 32.94 0 0 0 130.064 43.857 Q 127.966 46.613 126.9 49.229 A 63.568 63.568 0 0 0 126.813 49.447 A 58.274 58.274 0 0 0 124.6 56.179 Q 123.7 59.629 123.5 63.129 Q 123.439 64.229 123.546 65.497 A 24.176 24.176 0 0 0 123.75 67.179 Q 124.1 69.429 125.05 71.079 A 6.116 6.116 0 0 0 125.095 71.155 A 4.842 4.842 0 0 0 127.7 73.329 A 2.897 2.897 0 0 0 127.761 73.349 Q 129.062 73.776 130.824 72.994 A 9.965 9.965 0 0 0 131.9 72.429 Q 131.978 72.35 132.209 72.15 A 30.875 30.875 0 0 1 132.35 72.029 Q 132.7 71.729 133.1 71.379 Q 133.331 71.176 133.512 70.991 A 4.531 4.531 0 0 0 133.75 70.729 Q 134 70.429 133.9 70.229 A 0.376 0.376 0 0 0 133.854 70.232 Q 133.762 70.244 133.572 70.295 A 7.775 7.775 0 0 0 133.45 70.329 Q 133.1 70.429 132.7 70.579 L 131.9 70.879 A 8.172 8.172 0 0 1 131.755 70.932 Q 131.48 71.029 131.4 71.029 Q 129.4 71.329 128.4 70.629 A 3.435 3.435 0 0 1 127.523 69.739 A 4.108 4.108 0 0 1 127 68.629 A 8.697 8.697 0 0 1 126.697 67.218 A 11.664 11.664 0 0 1 126.6 65.679 L 126.6 62.529 Q 126.6 62.069 126.776 61.053 A 34.728 34.728 0 0 1 126.9 60.379 A 25.035 25.035 0 0 1 127.06 59.619 Q 127.209 58.959 127.412 58.207 A 52.499 52.499 0 0 1 127.85 56.679 Q 128.185 55.57 128.627 54.342 A 66.828 66.828 0 0 1 129.55 51.929 A 43.075 43.075 0 0 1 130.176 50.458 A 49.77 49.77 0 0 1 132.1 46.629 Q 133.6 44.029 135.6 41.779 A 42.187 42.187 0 0 1 136.981 40.297 A 35.059 35.059 0 0 1 139.65 37.829 A 42.963 42.963 0 0 1 139.682 37.802 Q 141.714 36.12 143.55 35.029 Q 144.764 34.307 145.741 33.886 A 9.547 9.547 0 0 1 146.7 33.529 A 30.825 30.825 0 0 0 146.975 33.459 Q 147.393 33.35 147.614 33.277 A 2.363 2.363 0 0 0 147.75 33.229 Q 147.972 33.14 147.839 32.972 Z M 59.35 33.729 A 0.707 0.707 0 0 0 59.377 33.71 Q 59.5 33.619 59.5 33.529 Q 59.5 33.365 59.233 33.335 A 1.201 1.201 0 0 0 59.1 33.329 L 58.3 33.329 A 10.066 10.066 0 0 0 57.745 33.365 Q 55.289 33.592 52.55 35.029 A 29.085 29.085 0 0 0 51.603 35.548 A 31.92 31.92 0 0 0 46.7 39.029 Q 43.9 41.429 41.75 44.329 A 31.685 31.685 0 0 0 41.486 44.69 Q 39.538 47.397 38.6 49.929 Q 36.9 53.429 36.2 56.879 Q 35.5 60.329 35.3 63.829 A 20.473 20.473 0 0 0 35.292 64.413 Q 35.292 65.37 35.381 66.342 A 24.152 24.152 0 0 0 36.3 71.029 A 4.47 4.47 0 0 0 36.523 71.578 A 3.427 3.427 0 0 0 37.6 72.879 Q 38.5 73.529 39.55 73.729 A 5.03 5.03 0 0 0 40.493 73.817 A 5.433 5.433 0 0 0 41.7 73.679 A 8.491 8.491 0 0 0 42.172 73.557 A 7.302 7.302 0 0 0 43.7 72.929 Q 43.778 72.85 44.009 72.681 A 12.621 12.621 0 0 1 44.15 72.579 Q 44.5 72.329 44.9 71.979 A 5.198 5.198 0 0 0 45.104 71.791 Q 45.355 71.547 45.5 71.329 A 1.821 1.821 0 0 0 45.508 71.316 Q 45.646 71.106 45.632 70.997 A 0.113 0.113 0 0 0 45.6 70.929 A 0.163 0.163 0 0 0 45.555 70.915 Q 45.344 70.878 44.652 71.153 A 12.405 12.405 0 0 0 44.35 71.279 A 27.389 27.389 0 0 1 44.062 71.4 Q 43.444 71.656 43.205 71.713 A 0.493 0.493 0 0 1 43.1 71.729 Q 41.1 72.029 40.1 71.329 A 3.562 3.562 0 0 1 39.149 70.335 A 4.619 4.619 0 0 1 38.65 69.279 Q 38.2 67.929 38.2 66.279 Q 38.2 64.629 38.3 62.929 A 17.385 17.385 0 0 0 38.342 62.712 Q 38.418 62.303 38.548 61.537 A 223.93 223.93 0 0 0 38.65 60.929 Q 38.807 59.988 39.101 58.792 A 50.904 50.904 0 0 1 39.5 57.279 A 36.146 36.146 0 0 1 40.216 55.019 A 49.633 49.633 0 0 1 41.15 52.579 A 45.145 45.145 0 0 1 42.001 50.645 A 53.521 53.521 0 0 1 43.7 47.329 Q 45.2 44.729 47.25 42.479 Q 49.3 40.229 51.4 38.529 Q 53.5 36.829 55.4 35.679 Q 57.3 34.529 58.6 34.029 A 13.69 13.69 0 0 0 58.806 33.958 Q 59.115 33.85 59.263 33.777 A 0.782 0.782 0 0 0 59.35 33.729 Z M 218.65 33.729 A 0.707 0.707 0 0 0 218.677 33.71 Q 218.8 33.619 218.8 33.529 Q 218.8 33.365 218.533 33.335 A 1.201 1.201 0 0 0 218.4 33.329 L 217.6 33.329 A 10.066 10.066 0 0 0 217.045 33.365 Q 214.589 33.592 211.85 35.029 A 29.085 29.085 0 0 0 210.903 35.548 A 31.92 31.92 0 0 0 206 39.029 Q 203.2 41.429 201.05 44.329 A 31.685 31.685 0 0 0 200.786 44.69 Q 198.838 47.397 197.9 49.929 Q 196.2 53.429 195.5 56.879 Q 194.8 60.329 194.6 63.829 A 20.473 20.473 0 0 0 194.592 64.413 Q 194.592 65.37 194.681 66.342 A 24.152 24.152 0 0 0 195.6 71.029 A 4.47 4.47 0 0 0 195.823 71.578 A 3.427 3.427 0 0 0 196.9 72.879 Q 197.8 73.529 198.85 73.729 A 5.03 5.03 0 0 0 199.793 73.817 A 5.433 5.433 0 0 0 201 73.679 A 8.491 8.491 0 0 0 201.472 73.557 A 7.302 7.302 0 0 0 203 72.929 Q 203.078 72.85 203.309 72.681 A 12.621 12.621 0 0 1 203.45 72.579 Q 203.8 72.329 204.2 71.979 A 5.198 5.198 0 0 0 204.404 71.791 Q 204.655 71.547 204.8 71.329 A 1.821 1.821 0 0 0 204.808 71.316 Q 204.946 71.106 204.932 70.997 A 0.113 0.113 0 0 0 204.9 70.929 A 0.163 0.163 0 0 0 204.855 70.915 Q 204.644 70.878 203.952 71.153 A 12.405 12.405 0 0 0 203.65 71.279 A 27.389 27.389 0 0 1 203.362 71.4 Q 202.744 71.656 202.505 71.713 A 0.493 0.493 0 0 1 202.4 71.729 Q 200.4 72.029 199.4 71.329 A 3.562 3.562 0 0 1 198.449 70.335 A 4.619 4.619 0 0 1 197.95 69.279 Q 197.5 67.929 197.5 66.279 Q 197.5 64.629 197.6 62.929 A 17.385 17.385 0 0 0 197.642 62.712 Q 197.718 62.303 197.848 61.537 A 223.93 223.93 0 0 0 197.95 60.929 Q 198.107 59.988 198.401 58.792 A 50.904 50.904 0 0 1 198.8 57.279 A 36.146 36.146 0 0 1 199.516 55.019 A 49.633 49.633 0 0 1 200.45 52.579 A 45.145 45.145 0 0 1 201.301 50.645 A 53.521 53.521 0 0 1 203 47.329 Q 204.5 44.729 206.55 42.479 Q 208.6 40.229 210.7 38.529 Q 212.8 36.829 214.7 35.679 Q 216.6 34.529 217.9 34.029 A 13.69 13.69 0 0 0 218.106 33.958 Q 218.415 33.85 218.563 33.777 A 0.782 0.782 0 0 0 218.65 33.729 Z M 115 33.629 L 115 33.329 Q 114.805 33.231 114.561 33.611 A 1.932 1.932 0 0 0 114.55 33.629 A 5.718 5.718 0 0 1 114.399 33.859 Q 114.238 34.091 114.1 34.229 Q 112.694 36.01 111.551 38.582 A 28.81 28.81 0 0 0 111.4 38.929 A 45.477 45.477 0 0 0 109.363 44.78 A 49.796 49.796 0 0 0 109.35 44.829 Q 108.5 47.929 107.95 51.029 Q 107.477 53.693 107.115 55.84 A 382.801 382.801 0 0 0 107 56.529 Q 106.5 59.929 106.15 62.979 Q 105.8 66.029 105.5 68.929 Q 105.2 71.829 105 74.779 Q 104.8 77.729 104.5 80.829 Q 104.6 80.929 104.6 81.379 L 104.6 82.279 L 104.6 83.079 Q 104.6 83.429 104.8 83.429 A 0.099 0.099 0 0 0 104.854 83.408 Q 104.948 83.344 105.1 83.079 Q 105.3 82.729 105.5 82.329 A 4.014 4.014 0 0 0 105.751 81.704 A 3.577 3.577 0 0 0 105.8 81.529 L 105.9 81.129 Q 107 78.729 107.8 75.529 Q 108.6 72.329 109.1 69.129 A 194.382 194.382 0 0 0 109.153 68.697 Q 109.239 67.996 109.397 66.687 A 2631.973 2631.973 0 0 0 109.5 65.829 Q 109.758 63.68 110.089 60.941 A 6970.535 6970.535 0 0 1 110.2 60.029 Q 110.6 56.729 111.15 52.879 Q 111.7 49.029 112.25 45.479 Q 112.8 41.929 113.45 39.029 Q 114.1 36.129 114.7 34.629 Q 114.8 34.229 114.9 34.029 A 0.963 0.963 0 0 0 114.981 33.804 A 0.817 0.817 0 0 0 115 33.629 Z M 305.7 33.629 L 305.7 33.329 Q 305.505 33.231 305.261 33.611 A 1.932 1.932 0 0 0 305.25 33.629 A 5.718 5.718 0 0 1 305.099 33.859 Q 304.938 34.091 304.8 34.229 Q 303.394 36.01 302.251 38.582 A 28.81 28.81 0 0 0 302.1 38.929 A 45.477 45.477 0 0 0 300.063 44.78 A 49.796 49.796 0 0 0 300.05 44.829 Q 299.2 47.929 298.65 51.029 Q 298.177 53.693 297.815 55.84 A 382.801 382.801 0 0 0 297.7 56.529 Q 297.2 59.929 296.85 62.979 Q 296.5 66.029 296.2 68.929 Q 295.9 71.829 295.7 74.779 Q 295.5 77.729 295.2 80.829 Q 295.3 80.929 295.3 81.379 L 295.3 82.279 L 295.3 83.079 Q 295.3 83.429 295.5 83.429 A 0.099 0.099 0 0 0 295.554 83.408 Q 295.648 83.344 295.8 83.079 Q 296 82.729 296.2 82.329 A 4.014 4.014 0 0 0 296.451 81.704 A 3.577 3.577 0 0 0 296.5 81.529 L 296.6 81.129 Q 297.7 78.729 298.5 75.529 Q 299.3 72.329 299.8 69.129 A 194.382 194.382 0 0 0 299.853 68.697 Q 299.939 67.996 300.097 66.687 A 2631.973 2631.973 0 0 0 300.2 65.829 Q 300.458 63.68 300.789 60.941 A 6970.535 6970.535 0 0 1 300.9 60.029 Q 301.3 56.729 301.85 52.879 Q 302.4 49.029 302.95 45.479 Q 303.5 41.929 304.15 39.029 Q 304.8 36.129 305.4 34.629 Q 305.5 34.229 305.6 34.029 A 0.963 0.963 0 0 0 305.681 33.804 A 0.817 0.817 0 0 0 305.7 33.629 Z M 74.1 25.929 Q 72.7 32.229 70.45 38.479 Q 68.2 44.729 66 50.329 A 3.021 3.021 0 0 1 65.908 50.67 Q 65.794 51.021 65.575 51.477 A 11.166 11.166 0 0 1 65.5 51.629 A 2.307 2.307 0 0 1 65.357 51.878 Q 65.031 52.366 64.644 52.244 A 0.616 0.616 0 0 1 64.6 52.229 Q 64.5 52.229 64.5 51.329 A 12.892 12.892 0 0 1 64.505 50.964 Q 64.52 50.424 64.585 50.18 A 0.857 0.857 0 0 1 64.6 50.129 A 70.196 70.196 0 0 1 64.771 49.001 Q 64.851 48.499 64.946 47.944 A 135.478 135.478 0 0 1 65.15 46.779 Q 65.5 44.829 65.95 42.829 Q 66.4 40.829 66.9 38.879 A 173.668 173.668 0 0 1 67.261 37.493 Q 67.55 36.404 67.8 35.529 A 3.116 3.116 0 0 0 67.938 35.194 Q 68.14 34.632 68.397 33.519 A 45.492 45.492 0 0 0 68.55 32.829 A 102.834 102.834 0 0 0 68.895 31.148 Q 69.041 30.404 69.192 29.587 A 184.096 184.096 0 0 0 69.5 27.879 Q 70 25.029 70.4 21.729 Q 70.8 18.429 70.9 15.379 Q 71 12.329 70.85 9.829 A 16.063 16.063 0 0 0 70.722 8.525 Q 70.54 7.247 70.16 6.435 A 3.817 3.817 0 0 0 70 6.129 Q 69.5 5.129 69.8 5.029 A 0.792 0.792 0 0 1 70.107 5.096 Q 70.346 5.196 70.614 5.446 A 3.269 3.269 0 0 1 70.7 5.529 A 8.599 8.599 0 0 1 72.101 7.403 Q 72.58 8.252 72.947 9.281 A 14.841 14.841 0 0 1 73.05 9.579 A 28.99 28.99 0 0 1 74.056 13.54 A 33.932 33.932 0 0 1 74.3 15.079 Q 74.7 18.029 74.6 20.929 A 43.384 43.384 0 0 1 74.469 23.153 Q 74.338 24.682 74.1 25.929 Z M 233.4 25.929 Q 232 32.229 229.75 38.479 Q 227.5 44.729 225.3 50.329 A 3.021 3.021 0 0 1 225.208 50.67 Q 225.094 51.021 224.875 51.477 A 11.166 11.166 0 0 1 224.8 51.629 A 2.307 2.307 0 0 1 224.657 51.878 Q 224.331 52.366 223.944 52.244 A 0.616 0.616 0 0 1 223.9 52.229 Q 223.8 52.229 223.8 51.329 A 12.892 12.892 0 0 1 223.805 50.964 Q 223.82 50.424 223.885 50.18 A 0.857 0.857 0 0 1 223.9 50.129 A 70.196 70.196 0 0 1 224.071 49.001 Q 224.151 48.499 224.246 47.944 A 135.478 135.478 0 0 1 224.45 46.779 Q 224.8 44.829 225.25 42.829 Q 225.7 40.829 226.2 38.879 A 173.668 173.668 0 0 1 226.561 37.493 Q 226.85 36.404 227.1 35.529 A 3.116 3.116 0 0 0 227.238 35.194 Q 227.44 34.632 227.697 33.519 A 45.492 45.492 0 0 0 227.85 32.829 A 102.834 102.834 0 0 0 228.195 31.148 Q 228.341 30.404 228.492 29.587 A 184.096 184.096 0 0 0 228.8 27.879 Q 229.3 25.029 229.7 21.729 Q 230.1 18.429 230.2 15.379 Q 230.3 12.329 230.15 9.829 A 16.063 16.063 0 0 0 230.022 8.525 Q 229.84 7.247 229.46 6.435 A 3.817 3.817 0 0 0 229.3 6.129 Q 228.8 5.129 229.1 5.029 A 0.792 0.792 0 0 1 229.407 5.096 Q 229.646 5.196 229.914 5.446 A 3.269 3.269 0 0 1 230 5.529 A 8.599 8.599 0 0 1 231.401 7.403 Q 231.88 8.252 232.247 9.281 A 14.841 14.841 0 0 1 232.35 9.579 A 28.99 28.99 0 0 1 233.356 13.54 A 33.932 33.932 0 0 1 233.6 15.079 Q 234 18.029 233.9 20.929 A 43.384 43.384 0 0 1 233.769 23.153 Q 233.638 24.682 233.4 25.929 Z M 11 60.929 Q 11.1 58.929 10.65 55.279 A 46.955 46.955 0 0 1 10.374 52.1 Q 10.241 49.665 10.3 46.829 A 46.532 46.532 0 0 1 10.705 42.339 A 51.676 51.676 0 0 1 10.8 41.679 A 14.265 14.265 0 0 1 11.981 37.813 A 17.276 17.276 0 0 1 12.7 36.429 A 12.024 12.024 0 0 1 14.449 34.056 A 9.59 9.59 0 0 1 16.75 32.279 Q 19.2 30.929 21 31.029 L 21.6 31.029 A 1.374 1.374 0 0 1 21.694 31.032 Q 21.836 31.041 21.88 31.083 A 0.06 0.06 0 0 1 21.9 31.129 Q 21.9 31.323 21.805 31.281 A 0.13 0.13 0 0 1 21.8 31.279 A 0.088 0.088 0 0 0 21.776 31.271 Q 21.665 31.252 21.274 31.373 A 8.193 8.193 0 0 0 21.1 31.429 Q 19.3 31.929 17.9 33.079 Q 16.5 34.229 15.5 35.729 A 15.228 15.228 0 0 0 13.919 38.779 A 14.274 14.274 0 0 0 13.9 38.829 A 13.569 13.569 0 0 0 13.483 40.125 Q 13.307 40.791 13.233 41.395 A 7.513 7.513 0 0 0 13.2 41.729 A 47.704 47.704 0 0 0 12.965 44.712 Q 12.797 48.382 13.3 51.329 Q 13.8 54.629 14.1 58.179 A 29.237 29.237 0 0 1 14.204 60.314 Q 14.223 61.959 14.038 63.461 A 19.928 19.928 0 0 1 13.85 64.679 A 13.001 13.001 0 0 1 13.146 67.147 A 9.678 9.678 0 0 1 11.75 69.579 A 5.353 5.353 0 0 1 9.208 71.319 Q 8.348 71.61 7.302 71.705 A 10.741 10.741 0 0 1 7 71.729 Q 6.796 71.729 6.523 71.705 A 10.449 10.449 0 0 1 6.25 71.679 A 1.561 1.561 0 0 1 6.097 71.655 Q 5.949 71.623 5.875 71.567 A 0.169 0.169 0 0 1 5.8 71.429 Q 5.8 71.229 6.7 70.729 A 7.556 7.556 0 0 0 8.397 69.674 A 5.5 5.5 0 0 0 10.1 67.229 Q 10.9 64.929 11 60.929 Z M 170.3 60.929 Q 170.4 58.929 169.95 55.279 A 46.955 46.955 0 0 1 169.674 52.1 Q 169.541 49.665 169.6 46.829 A 46.532 46.532 0 0 1 170.005 42.339 A 51.676 51.676 0 0 1 170.1 41.679 A 14.265 14.265 0 0 1 171.281 37.813 A 17.276 17.276 0 0 1 172 36.429 A 12.024 12.024 0 0 1 173.749 34.056 A 9.59 9.59 0 0 1 176.05 32.279 Q 178.5 30.929 180.3 31.029 L 180.9 31.029 A 1.374 1.374 0 0 1 180.994 31.032 Q 181.136 31.041 181.18 31.083 A 0.06 0.06 0 0 1 181.2 31.129 Q 181.2 31.323 181.105 31.281 A 0.13 0.13 0 0 1 181.1 31.279 A 0.088 0.088 0 0 0 181.076 31.271 Q 180.965 31.252 180.574 31.373 A 8.193 8.193 0 0 0 180.4 31.429 Q 178.6 31.929 177.2 33.079 Q 175.8 34.229 174.8 35.729 A 15.228 15.228 0 0 0 173.219 38.779 A 14.274 14.274 0 0 0 173.2 38.829 A 13.569 13.569 0 0 0 172.783 40.125 Q 172.607 40.791 172.533 41.395 A 7.513 7.513 0 0 0 172.5 41.729 A 47.704 47.704 0 0 0 172.265 44.712 Q 172.097 48.382 172.6 51.329 Q 173.1 54.629 173.4 58.179 A 29.237 29.237 0 0 1 173.504 60.314 Q 173.523 61.959 173.338 63.461 A 19.928 19.928 0 0 1 173.15 64.679 A 13.001 13.001 0 0 1 172.446 67.147 A 9.678 9.678 0 0 1 171.05 69.579 A 5.353 5.353 0 0 1 168.508 71.319 Q 167.648 71.61 166.602 71.705 A 10.741 10.741 0 0 1 166.3 71.729 Q 166.096 71.729 165.823 71.705 A 10.449 10.449 0 0 1 165.55 71.679 A 1.561 1.561 0 0 1 165.397 71.655 Q 165.249 71.623 165.175 71.567 A 0.169 0.169 0 0 1 165.1 71.429 Q 165.1 71.229 166 70.729 A 7.556 7.556 0 0 0 167.697 69.674 A 5.5 5.5 0 0 0 169.4 67.229 Q 170.2 64.929 170.3 60.929 Z M 15.1 38.979 A 12.96 12.96 0 0 0 14.856 39.636 Q 14.573 40.475 14.5 41.129 Q 14.2 44.029 14.4 46.779 Q 14.6 49.529 15.05 52.229 Q 15.5 54.929 16 57.479 Q 16.5 60.029 16.7 62.529 L 16.7 63.529 Q 16.7 64.229 17.2 64.229 A 0.142 0.142 0 0 0 17.297 64.184 Q 17.404 64.084 17.494 63.758 A 4.017 4.017 0 0 0 17.55 63.529 Q 17.7 62.829 17.8 62.529 A 10.806 10.806 0 0 0 17.883 62.169 Q 18 61.622 18.08 60.991 A 20.297 20.297 0 0 0 18.2 59.679 Q 18.3 58.029 18.3 56.329 Q 18.3 54.629 18.15 52.979 Q 18 51.329 17.8 50.229 A 4.458 4.458 0 0 0 17.798 50.108 Q 17.787 49.681 17.7 48.729 A 13.004 13.004 0 0 1 17.696 48.681 Q 17.601 47.595 17.65 46.079 A 22.177 22.177 0 0 1 17.742 44.674 A 28.327 28.327 0 0 1 18 42.729 Q 18.3 40.929 19.1 39.229 A 7.259 7.259 0 0 1 19.852 38.019 A 5.2 5.2 0 0 1 21.45 36.629 A 8.773 8.773 0 0 1 21.632 36.531 A 7.645 7.645 0 0 1 24.45 35.679 Q 26 35.529 27.35 35.829 Q 28.299 36.04 28.878 36.3 A 2.936 2.936 0 0 1 29.3 36.529 A 2.176 2.176 0 0 0 29.394 36.582 Q 29.657 36.723 29.827 36.707 A 0.272 0.272 0 0 0 30 36.629 A 0.063 0.063 0 0 0 30.015 36.603 Q 30.06 36.468 29.7 35.929 A 6.588 6.588 0 0 0 29.181 35.384 Q 28.642 34.877 27.934 34.421 A 12.797 12.797 0 0 0 26.5 33.629 A 6.173 6.173 0 0 0 25.056 33.155 Q 23.384 32.819 21.2 33.229 Q 19.7 33.529 18.5 34.479 A 12.3 12.3 0 0 0 18.205 34.719 A 10.935 10.935 0 0 0 16.45 36.579 A 11.898 11.898 0 0 0 16.345 36.723 A 10.684 10.684 0 0 0 15.1 38.979 Z M 174.4 38.979 A 12.96 12.96 0 0 0 174.156 39.636 Q 173.873 40.475 173.8 41.129 Q 173.5 44.029 173.7 46.779 Q 173.9 49.529 174.35 52.229 Q 174.8 54.929 175.3 57.479 Q 175.8 60.029 176 62.529 L 176 63.529 Q 176 64.229 176.5 64.229 A 0.142 0.142 0 0 0 176.597 64.184 Q 176.704 64.084 176.794 63.758 A 4.017 4.017 0 0 0 176.85 63.529 Q 177 62.829 177.1 62.529 A 10.806 10.806 0 0 0 177.183 62.169 Q 177.3 61.622 177.38 60.991 A 20.297 20.297 0 0 0 177.5 59.679 Q 177.6 58.029 177.6 56.329 Q 177.6 54.629 177.45 52.979 Q 177.3 51.329 177.1 50.229 A 4.458 4.458 0 0 0 177.098 50.108 Q 177.087 49.681 177 48.729 A 13.004 13.004 0 0 1 176.996 48.681 Q 176.901 47.595 176.95 46.079 A 22.177 22.177 0 0 1 177.042 44.674 A 28.327 28.327 0 0 1 177.3 42.729 Q 177.6 40.929 178.4 39.229 A 7.259 7.259 0 0 1 179.152 38.019 A 5.2 5.2 0 0 1 180.75 36.629 A 8.773 8.773 0 0 1 180.932 36.531 A 7.645 7.645 0 0 1 183.75 35.679 Q 185.3 35.529 186.65 35.829 Q 187.599 36.04 188.178 36.3 A 2.936 2.936 0 0 1 188.6 36.529 A 2.176 2.176 0 0 0 188.694 36.582 Q 188.957 36.723 189.127 36.707 A 0.272 0.272 0 0 0 189.3 36.629 A 0.063 0.063 0 0 0 189.315 36.603 Q 189.36 36.468 189 35.929 A 6.588 6.588 0 0 0 188.481 35.384 Q 187.942 34.877 187.234 34.421 A 12.797 12.797 0 0 0 185.8 33.629 A 6.173 6.173 0 0 0 184.356 33.155 Q 182.684 32.819 180.5 33.229 Q 179 33.529 177.8 34.479 A 12.3 12.3 0 0 0 177.505 34.719 A 10.935 10.935 0 0 0 175.75 36.579 A 11.898 11.898 0 0 0 175.645 36.723 A 10.684 10.684 0 0 0 174.4 38.979 Z M 160 35.529 L 160.4 36.129 Q 161.531 37.782 161.678 40.343 A 13.714 13.714 0 0 1 161.7 41.129 Q 161.7 44.229 161.1 47.479 A 59.078 59.078 0 0 1 159.614 53.682 A 55.45 55.45 0 0 1 159.6 53.729 Q 158.858 56.201 158.456 57.859 A 35.634 35.634 0 0 0 158.3 58.529 Q 157.5 62.029 156.1 65.529 A 326.036 326.036 0 0 0 154.952 68.438 Q 154.263 70.21 153.7 71.729 Q 153.6 72.029 153.4 72.379 A 1.45 1.45 0 0 1 153.313 72.515 Q 153.156 72.729 153 72.729 A 0.16 0.16 0 0 1 152.851 72.63 Q 152.811 72.552 152.803 72.413 A 1.347 1.347 0 0 1 152.8 72.329 L 152.8 71.629 Q 152.5 66.129 154 60.879 Q 155.5 55.629 157.2 50.229 Q 158.2 46.929 159.1 43.479 A 25.102 25.102 0 0 0 159.829 38.987 Q 159.938 37.506 159.9 35.929 Q 159.9 35.561 159.984 35.531 A 0.046 0.046 0 0 1 160 35.529 Z M 151 34.429 Q 144.9 36.929 140.65 41.579 Q 136.4 46.229 134.1 52.029 A 49.953 49.953 0 0 0 133.42 53.901 Q 132.913 55.397 132.6 56.679 Q 132.1 58.729 131.8 61.129 Q 131.705 61.601 132.058 62.074 A 2.018 2.018 0 0 0 132.1 62.129 A 1.026 1.026 0 0 0 132.206 62.244 Q 132.5 62.513 132.794 62.244 A 1.026 1.026 0 0 0 132.9 62.129 Q 134.7 59.929 137.5 56.529 Q 140.3 53.129 143.1 49.329 Q 145.9 45.529 148.15 41.629 Q 149.977 38.462 150.716 35.69 A 16.019 16.019 0 0 0 151 34.429 Z M 62.3 35.329 Q 56.3 37.929 52.05 42.579 Q 47.8 47.229 45.6 52.929 A 48.299 48.299 0 0 0 44.655 55.69 A 38.884 38.884 0 0 0 44.15 57.479 A 26.948 26.948 0 0 0 43.487 61.137 A 30.6 30.6 0 0 0 43.4 62.029 A 3.869 3.869 0 0 0 43.391 62.155 Q 43.338 63.212 44 62.929 Q 44.7 62.629 45.2 62.029 Q 46.4 60.529 47.4 59.079 A 431.063 431.063 0 0 0 49.188 56.465 A 471.984 471.984 0 0 0 49.45 56.079 Q 50.5 54.529 51.65 52.779 Q 52.8 51.029 54.2 49.029 Q 55.7 46.929 57.05 44.879 Q 58.4 42.829 59.45 41.029 A 69.28 69.28 0 0 0 60.411 39.329 Q 60.855 38.517 61.226 37.776 A 42.138 42.138 0 0 0 61.25 37.729 Q 61.868 36.492 62.181 35.664 A 9.189 9.189 0 0 0 62.3 35.329 Z M 221.6 35.329 Q 215.6 37.929 211.35 42.579 Q 207.1 47.229 204.9 52.929 A 48.299 48.299 0 0 0 203.955 55.69 A 38.884 38.884 0 0 0 203.45 57.479 A 26.948 26.948 0 0 0 202.787 61.137 A 30.6 30.6 0 0 0 202.7 62.029 A 3.869 3.869 0 0 0 202.691 62.155 Q 202.638 63.212 203.3 62.929 Q 204 62.629 204.5 62.029 Q 205.7 60.529 206.7 59.079 A 431.063 431.063 0 0 0 208.488 56.465 A 471.984 471.984 0 0 0 208.75 56.079 Q 209.8 54.529 210.95 52.779 Q 212.1 51.029 213.5 49.029 Q 215 46.929 216.35 44.879 Q 217.7 42.829 218.75 41.029 A 69.28 69.28 0 0 0 219.711 39.329 Q 220.155 38.517 220.526 37.776 A 42.138 42.138 0 0 0 220.55 37.729 Q 221.168 36.492 221.481 35.664 A 9.189 9.189 0 0 0 221.6 35.329 Z M 155.974 49.329 A 33.511 33.511 0 0 0 158 42.829 A 17.016 17.016 0 0 0 158.377 39.289 A 16.55 16.55 0 0 0 158.1 36.279 Q 157.5 33.029 155.8 30.329 A 3.471 3.471 0 0 0 155.602 30.061 A 4.433 4.433 0 0 0 155.3 29.729 Q 155.075 29.504 154.906 29.504 A 0.234 0.234 0 0 0 154.8 29.529 Q 154.624 29.705 154.68 30.346 A 5.039 5.039 0 0 0 154.7 30.529 A 27.307 27.307 0 0 1 154.859 31.874 Q 154.957 32.933 154.957 33.908 A 18.743 18.743 0 0 1 154.95 34.429 Q 154.9 36.229 154.6 38.229 A 35.986 35.986 0 0 1 154.58 38.358 Q 154.281 40.308 153.7 42.679 Q 153.325 44.21 152.833 46.112 A 447.448 447.448 0 0 1 152.2 48.529 Q 151.9 49.529 151.65 50.779 A 47.969 47.969 0 0 0 151.588 51.093 A 53.16 53.16 0 0 0 151.2 53.379 A 57.375 57.375 0 0 1 151.149 53.715 A 51.817 51.817 0 0 1 150.75 55.979 A 37.309 37.309 0 0 0 150.641 56.545 Q 150.557 57.002 150.496 57.404 A 18.464 18.464 0 0 0 150.4 58.129 L 150.4 58.879 Q 150.4 59.16 150.479 59.324 A 0.373 0.373 0 0 0 150.7 59.529 A 0.202 0.202 0 0 0 150.768 59.516 Q 150.911 59.464 151.114 59.211 A 3.511 3.511 0 0 0 151.25 59.029 A 21.168 21.168 0 0 0 151.3 58.956 Q 151.53 58.626 151.639 58.439 A 1.92 1.92 0 0 0 151.7 58.329 Q 153.4 54.829 155.3 50.829 A 38.33 38.33 0 0 0 155.974 49.329 Z M 248.4 86.929 L 249.3 96.129 Q 249.6 98.829 250.2 101.329 Q 250.8 103.829 251.5 106.329 Q 251.6 106.729 251.65 107.179 A 3.618 3.618 0 0 1 251.657 107.25 Q 251.683 107.53 251.639 107.603 A 0.045 0.045 0 0 1 251.6 107.629 A 0.163 0.163 0 0 1 251.53 107.645 Q 251.348 107.65 251.004 107.329 A 4.062 4.062 0 0 1 250.9 107.229 Q 250.714 107.043 250.615 106.857 A 1.142 1.142 0 0 1 250.6 106.829 Q 250 105.829 249.55 104.979 A 15.349 15.349 0 0 1 249.06 103.959 A 19.38 19.38 0 0 1 248.7 103.079 Q 248.394 102.275 248.117 101.207 A 28.469 28.469 0 0 1 247.95 100.529 Q 247.712 99.509 247.497 98.12 A 59.42 59.42 0 0 1 247.3 96.729 Q 247 95.029 246.9 92.379 Q 246.8 89.729 246.8 87.229 Q 246.8 85.315 246.917 83.811 A 27.007 27.007 0 0 1 247 82.929 Q 247.169 81.405 247.41 81.171 A 0.129 0.129 0 0 1 247.5 81.129 A 0.153 0.153 0 0 1 247.606 81.181 Q 247.718 81.293 247.829 81.637 A 4.81 4.81 0 0 1 247.9 81.879 Q 248.072 82.523 248.17 83.352 A 15.441 15.441 0 0 1 248.2 83.629 A 41.611 41.611 0 0 1 248.348 85.549 A 39.048 39.048 0 0 1 248.35 85.579 Q 248.4 86.529 248.4 86.929 Z M 272.7 39.079 A 3.625 3.625 0 0 0 272.714 39.043 Q 272.8 38.821 272.8 38.729 A 0.903 0.903 0 0 0 272.799 38.696 Q 272.785 38.289 272.389 38.644 A 2.272 2.272 0 0 0 272.3 38.729 A 4.56 4.56 0 0 1 271.192 39.625 A 6.385 6.385 0 0 1 270.1 40.129 A 12.54 12.54 0 0 1 268.818 40.509 A 15.497 15.497 0 0 1 267 40.829 Q 265.3 41.029 263.5 40.979 Q 261.7 40.929 260.1 40.629 Q 259.4 40.529 258.4 40.479 Q 257.4 40.429 256.35 40.429 Q 255.3 40.429 254.3 40.529 Q 253.644 40.594 253.16 40.703 A 4.754 4.754 0 0 0 252.7 40.829 Q 252.5 40.929 252.2 41.029 A 0.822 0.822 0 0 0 252.09 41.073 Q 251.9 41.169 251.9 41.329 Q 251.9 41.529 252.35 41.829 Q 252.709 42.068 252.845 42.116 A 0.176 0.176 0 0 0 252.9 42.129 A 46.248 46.248 0 0 0 253.72 42.435 A 51.488 51.488 0 0 0 258.4 43.879 Q 261.3 44.629 264 44.829 A 3.857 3.857 0 0 0 264.057 44.834 Q 264.639 44.89 265.345 44.782 A 8.305 8.305 0 0 0 266.1 44.629 A 8.286 8.286 0 0 0 267 44.347 A 9.831 9.831 0 0 0 268.5 43.629 A 12.599 12.599 0 0 0 268.836 43.426 A 13.828 13.828 0 0 0 270.8 41.929 Q 271.9 40.929 272.5 39.529 Q 272.6 39.329 272.7 39.079 Z M 73.951 75.854 A 0.203 0.203 0 0 0 74 75.729 Q 74 75.529 73.75 75.479 Q 73.617 75.452 73.498 75.44 A 1.906 1.906 0 0 0 73.3 75.429 Q 71.397 75.361 69.679 74.045 A 10.515 10.515 0 0 1 68.1 72.529 Q 67.1 71.529 66.4 70.229 Q 65.7 68.929 65.2 67.329 Q 65.1 67.029 64.9 66.379 L 64.5 65.079 Q 64.3 64.429 64.05 63.929 Q 63.8 63.429 63.7 63.529 A 0.228 0.228 0 0 0 63.645 63.521 Q 63.351 63.521 63.272 64.381 A 6.586 6.586 0 0 0 63.25 64.729 A 8.62 8.62 0 0 0 63.244 65.06 Q 63.244 66.241 63.55 67.729 A 22.892 22.892 0 0 0 63.771 68.693 A 26.474 26.474 0 0 0 64.55 71.229 A 11.477 11.477 0 0 0 64.924 72.146 Q 65.177 72.692 65.46 73.127 A 4.948 4.948 0 0 0 66.1 73.929 A 11.532 11.532 0 0 0 66.815 74.588 Q 67.409 75.089 67.997 75.43 A 5.479 5.479 0 0 0 69.45 76.029 Q 71.1 76.429 73 76.229 Q 73.138 76.229 73.322 76.181 A 2.608 2.608 0 0 0 73.5 76.129 Q 73.844 75.991 73.951 75.854 Z M 233.251 75.854 A 0.203 0.203 0 0 0 233.3 75.729 Q 233.3 75.529 233.05 75.479 Q 232.917 75.452 232.798 75.44 A 1.906 1.906 0 0 0 232.6 75.429 Q 230.697 75.361 228.979 74.045 A 10.515 10.515 0 0 1 227.4 72.529 Q 226.4 71.529 225.7 70.229 Q 225 68.929 224.5 67.329 Q 224.4 67.029 224.2 66.379 L 223.8 65.079 Q 223.6 64.429 223.35 63.929 Q 223.1 63.429 223 63.529 A 0.228 0.228 0 0 0 222.945 63.521 Q 222.651 63.521 222.572 64.381 A 6.586 6.586 0 0 0 222.55 64.729 A 8.62 8.62 0 0 0 222.544 65.06 Q 222.544 66.241 222.85 67.729 A 22.892 22.892 0 0 0 223.071 68.693 A 26.474 26.474 0 0 0 223.85 71.229 A 11.477 11.477 0 0 0 224.224 72.146 Q 224.477 72.692 224.76 73.127 A 4.948 4.948 0 0 0 225.4 73.929 A 11.532 11.532 0 0 0 226.115 74.588 Q 226.709 75.089 227.297 75.43 A 5.479 5.479 0 0 0 228.75 76.029 Q 230.4 76.429 232.3 76.229 Q 232.438 76.229 232.622 76.181 A 2.608 2.608 0 0 0 232.8 76.129 Q 233.144 75.991 233.251 75.854 Z M 95.4 99.829 A 0.54 0.54 0 0 0 95.073 99.674 Q 94.989 99.664 94.893 99.673 A 1.053 1.053 0 0 0 94.85 99.679 Q 94.5 99.729 94.4 99.729 Q 92.7 100.029 91.05 99.629 A 22.58 22.58 0 0 1 88.336 98.781 A 25.535 25.535 0 0 1 87.7 98.529 Q 85.8 97.729 84.2 96.579 Q 82.6 95.429 80.6 94.129 Q 80.466 93.994 80.241 93.86 A 3.652 3.652 0 0 0 80 93.729 A 1.824 1.824 0 0 0 79.917 93.69 Q 79.6 93.55 79.6 93.729 Q 79.507 93.822 79.716 94.174 A 2.92 2.92 0 0 0 79.75 94.229 A 5.718 5.718 0 0 0 79.901 94.459 Q 80.063 94.691 80.2 94.829 Q 81.5 96.529 82.95 98.029 A 9.433 9.433 0 0 0 85.079 99.66 A 12.376 12.376 0 0 0 86.7 100.429 Q 88.2 101.029 89.8 101.229 Q 91.314 101.418 92.605 101.294 A 9.952 9.952 0 0 0 92.75 101.279 A 9.758 9.758 0 0 0 93.611 101.146 Q 94.016 101.064 94.355 100.951 A 4.158 4.158 0 0 0 94.9 100.729 A 2.127 2.127 0 0 0 95.127 100.599 Q 95.652 100.249 95.4 99.829 Z M 286.1 99.829 A 0.54 0.54 0 0 0 285.773 99.674 Q 285.689 99.664 285.593 99.673 A 1.053 1.053 0 0 0 285.55 99.679 Q 285.2 99.729 285.1 99.729 Q 283.4 100.029 281.75 99.629 A 22.58 22.58 0 0 1 279.036 98.781 A 25.535 25.535 0 0 1 278.4 98.529 Q 276.5 97.729 274.9 96.579 Q 273.3 95.429 271.3 94.129 Q 271.166 93.994 270.941 93.86 A 3.652 3.652 0 0 0 270.7 93.729 A 1.824 1.824 0 0 0 270.617 93.69 Q 270.3 93.55 270.3 93.729 Q 270.207 93.822 270.416 94.174 A 2.92 2.92 0 0 0 270.45 94.229 A 5.718 5.718 0 0 0 270.601 94.459 Q 270.763 94.691 270.9 94.829 Q 272.2 96.529 273.65 98.029 A 9.433 9.433 0 0 0 275.779 99.66 A 12.376 12.376 0 0 0 277.4 100.429 Q 278.9 101.029 280.5 101.229 Q 282.014 101.418 283.305 101.294 A 9.952 9.952 0 0 0 283.45 101.279 A 9.758 9.758 0 0 0 284.311 101.146 Q 284.716 101.064 285.055 100.951 A 4.158 4.158 0 0 0 285.6 100.729 A 2.127 2.127 0 0 0 285.827 100.599 Q 286.352 100.249 286.1 99.829 Z M 0.4 70.729 L 0.2 70.329 A 2.432 2.432 0 0 1 0.148 70.218 Q 0.016 69.916 0.099 69.83 A 0.095 0.095 0 0 1 0.1 69.829 A 0.169 0.169 0 0 1 0.223 69.779 Q 0.277 69.778 0.343 69.804 A 0.624 0.624 0 0 1 0.4 69.829 A 0.451 0.451 0 0 1 0.452 69.89 Q 0.5 69.959 0.5 70.029 Q 1.673 71.104 2.512 71.654 A 7.688 7.688 0 0 0 2.55 71.679 Q 3.4 72.229 4.8 72.729 A 11.736 11.736 0 0 0 6.292 73.013 Q 7.684 73.192 9.4 73.129 A 8.318 8.318 0 0 0 10.115 73.015 Q 10.488 72.94 10.911 72.827 A 18.884 18.884 0 0 0 11.6 72.629 A 13.886 13.886 0 0 1 11.906 72.538 Q 12.781 72.291 12.961 72.391 A 0.09 0.09 0 0 1 13 72.429 A 0.373 0.373 0 0 1 13.064 72.558 Q 13.159 72.922 12.4 73.429 A 7.111 7.111 0 0 1 11.534 73.917 Q 11.097 74.126 10.583 74.313 A 13.513 13.513 0 0 1 10.1 74.479 Q 8.7 74.929 7.2 75.079 A 8.316 8.316 0 0 1 6.703 75.114 Q 5.53 75.16 4.7 74.829 A 12.6 12.6 0 0 1 3.615 74.314 Q 2.552 73.741 1.97 73.1 A 3.71 3.71 0 0 1 1.95 73.079 Q 1.113 72.143 0.422 70.772 A 14.497 14.497 0 0 1 0.4 70.729 Z M 159.7 70.729 L 159.5 70.329 A 2.432 2.432 0 0 1 159.448 70.218 Q 159.316 69.916 159.399 69.83 A 0.095 0.095 0 0 1 159.4 69.829 A 0.169 0.169 0 0 1 159.523 69.779 Q 159.577 69.778 159.643 69.804 A 0.624 0.624 0 0 1 159.7 69.829 A 0.451 0.451 0 0 1 159.752 69.89 Q 159.8 69.959 159.8 70.029 Q 160.973 71.104 161.812 71.654 A 7.688 7.688 0 0 0 161.85 71.679 Q 162.7 72.229 164.1 72.729 A 11.736 11.736 0 0 0 165.592 73.013 Q 166.984 73.192 168.7 73.129 A 8.318 8.318 0 0 0 169.415 73.015 Q 169.788 72.94 170.211 72.827 A 18.884 18.884 0 0 0 170.9 72.629 A 13.886 13.886 0 0 1 171.206 72.538 Q 172.081 72.291 172.261 72.391 A 0.09 0.09 0 0 1 172.3 72.429 A 0.373 0.373 0 0 1 172.364 72.558 Q 172.459 72.922 171.7 73.429 A 7.111 7.111 0 0 1 170.834 73.917 Q 170.397 74.126 169.883 74.313 A 13.513 13.513 0 0 1 169.4 74.479 Q 168 74.929 166.5 75.079 A 8.316 8.316 0 0 1 166.003 75.114 Q 164.83 75.16 164 74.829 A 12.6 12.6 0 0 1 162.915 74.314 Q 161.852 73.741 161.27 73.1 A 3.71 3.71 0 0 1 161.25 73.079 Q 160.413 72.143 159.722 70.772 A 14.497 14.497 0 0 1 159.7 70.729 Z M 153.752 77.912 A 1.522 1.522 0 0 0 153.7 77.829 A 1.48 1.48 0 0 1 153.672 77.785 Q 153.501 77.508 153.078 76.615 A 69.026 69.026 0 0 1 152.85 76.129 Q 152.484 75.341 152.198 74.648 A 25.249 25.249 0 0 1 151.8 73.629 Q 151.5 72.729 151.25 71.679 A 83.363 83.363 0 0 1 151.089 70.988 Q 151.006 70.626 150.918 70.229 A 145.454 145.454 0 0 1 150.7 69.229 A 5.515 5.515 0 0 1 150.686 69.186 Q 150.599 68.919 150.372 68.147 A 209.226 209.226 0 0 1 150.25 67.729 A 10.473 10.473 0 0 0 150.232 67.669 Q 149.981 66.826 149.756 66.606 A 0.229 0.229 0 0 0 149.6 66.529 A 0.218 0.218 0 0 0 149.498 66.554 Q 149.324 66.644 149.211 67.058 A 3.422 3.422 0 0 0 149.15 67.329 Q 149.061 67.804 149.025 68.384 A 13.607 13.607 0 0 0 149 69.229 A 17.433 17.433 0 0 0 149.022 70.084 A 21.357 21.357 0 0 0 149.15 71.579 Q 149.246 72.379 149.363 72.995 A 11.247 11.247 0 0 0 149.5 73.629 A 9.44 9.44 0 0 0 149.718 74.324 Q 150.315 75.994 151.4 76.829 A 204.737 204.737 0 0 0 151.563 76.954 Q 152.719 77.841 153 78.029 Q 153.5 78.229 153.8 78.229 A 0.108 0.108 0 0 0 153.826 78.188 Q 153.859 78.097 153.752 77.912 Z M 245.5 43.229 L 242.7 45.129 Q 241.9 45.929 241.3 46.629 A 17.432 17.432 0 0 0 240.756 47.298 Q 240.394 47.766 240 48.329 Q 239.8 48.529 239.75 48.729 A 0.328 0.328 0 0 1 239.713 48.821 Q 239.656 48.913 239.541 48.926 A 0.356 0.356 0 0 1 239.5 48.929 A 0.048 0.048 0 0 1 239.462 48.893 Q 239.4 48.76 239.4 48.129 Q 239.4 47.729 239.5 47.329 A 24.765 24.765 0 0 1 239.875 46.342 Q 240.188 45.572 240.5 44.979 A 4.677 4.677 0 0 1 240.963 44.276 Q 241.467 43.633 242.3 42.929 Q 242.689 42.618 243.259 42.307 A 10.772 10.772 0 0 1 243.6 42.129 A 12.731 12.731 0 0 1 244.58 41.687 A 10.579 10.579 0 0 1 245.15 41.479 Q 245.9 41.229 246.45 41.229 Q 247 41.229 247 41.629 A 0.646 0.646 0 0 1 246.933 41.9 Q 246.83 42.121 246.569 42.379 A 3.889 3.889 0 0 1 246.35 42.579 Q 245.7 43.129 245.5 43.229 Z"
              vector-effect="non-scaling-stroke"/>
    </g>
</svg>
